<svg width="71" height="65" viewBox="0 0 71 65" fill="none" xmlns="http://www.w3.org/2000/svg">
<path d="M36.5439 21.645V41H32.0645V25.2395H28.1936V21.645H36.5439ZM42.4499 41.2212C41.6942 41.2212 41.0582 40.9631 40.5421 40.447C40.0259 39.9309 39.7679 39.2857 39.7679 38.5115C39.7679 37.7189 40.0259 37.0829 40.5421 36.6036C41.0582 36.1059 41.6942 35.8571 42.4499 35.8571C43.2057 35.8571 43.8416 36.1059 44.3578 36.6036C44.8739 37.0829 45.132 37.7189 45.132 38.5115C45.132 39.2857 44.8739 39.9309 44.3578 40.447C43.8416 40.9631 43.2057 41.2212 42.4499 41.2212Z" fill="black"/>
<path d="M2.45231 45.1636C-0.905058 32.9074 8.84215 15.9127 17.9241 8.59996C31.8487 -2.54462 55.9846 0.59985 65.8865 15.9127C75.4017 30.6259 67.2171 49.6974 53.5091 58.3264C38.3623 67.8622 15.4331 65.3467 5.54667 51.0137C-5.54659 34.9258 5.02063 11.5251 22.5656 4.21233C32.9162 -0.0729191 48.3416 0.204965 58.1506 10.0625C63.3366 15.4701 66.2089 22.508 66.2089 29.8068C66.2089 37.1057 63.3366 44.1436 58.1506 49.5512C47.7227 60.023 31.0441 60.2278 19.4713 53.9388C8.378 47.9131 -0.765812 34.4139 3.99949 20.3003C6.19165 14.0293 10.6485 8.68762 16.589 5.21131C22.5296 1.73499 29.5748 0.345827 36.4902 1.28725C51.9619 3.55419 68.2382 19.1888 65.8865 33.4632" stroke="black" stroke-miterlimit="10"/>
</svg>
