<svg width="864" height="122" viewBox="0 0 864 122" fill="none" xmlns="http://www.w3.org/2000/svg">
<g clip-path="url(#clip0)">
<path d="M45 34C72.0902 30.1521 79.0342 3.78952 105.867 3.70765C133.129 3.62578 139.216 30.807 166.734 29.9064C191.51 29.0877 195.025 6.90063 220.743 6.16378C245.005 5.42694 248.862 24.9123 275.61 25.8129C301.328 26.6316 304.586 8.86553 331.333 8.61992C360.309 8.37431 365.453 29.2515 392.2 26.6316C414.833 24.4211 418.605 8.78366 439.351 10.2573C458.469 11.5673 460.355 25.1579 477.929 25.8129C500.818 26.6316 505.705 3.78952 528.509 2.88894C552.856 1.98835 558.342 27.5322 583.375 27.4503C607.55 27.3684 612.351 3.54391 636.527 3.70765C660.531 3.87139 664.646 27.4503 688.821 28.269C714.197 29.0877 718.912 3.54391 746.259 2.07022C774.121 0.51467 779.264 25.3217 808.841 24.9942C837.388 24.6667 847.162 1.25151 872.709 4.52636C888.311 6.49127 899.799 17.2164 907 25.8129" stroke="#FFD800" stroke-width="7" stroke-miterlimit="10"/>
<path d="M47.7956 67.345C73.4818 70.1494 83.6511 42.8094 114.158 42.681C143.918 42.5314 149.162 68.5672 177.469 66.8828C205.027 65.26 208.569 40.0548 237.282 38.7138C261.335 37.5722 264.746 55.01 291.67 55.1946C319.508 55.4052 323.114 36.7564 348.685 37.7322C377.745 38.8073 382.871 63.1803 408.698 61.0105C431.195 59.078 436.397 39.8108 455.771 42.4358C473.489 44.8478 474.587 61.805 490.917 63.3478C511.888 65.3545 518.401 37.9935 541.523 37.4063C562.485 36.8405 565.678 59.0014 589.886 61.1831C614.257 63.4523 619.775 41.871 645.264 42.8445C671.331 43.9174 675.083 66.9238 699.439 66.7865C724.627 66.6728 729.071 41.9081 754.175 41.792C778.947 41.6666 782.421 65.6607 808.328 66.5632C833.985 67.4585 843.619 44.3347 867.881 47.5136C882.289 49.4166 892.978 59.345 899.728 67.5021" stroke="#FFD800" stroke-width="7" stroke-miterlimit="10"/>
<path d="M49.3508 118.931C76.3526 116.526 82.9161 90.8158 108.505 89.4059C135.756 87.913 141.572 116.112 168.906 115.448C198.567 114.702 205.213 81.1122 233.793 81.6928C258.469 82.1904 262.291 107.486 287.548 107.901C315.048 108.315 321.861 78.6241 348.447 80.034C372.541 81.2781 376.778 106.159 399.709 105.496C422.806 104.832 428.954 79.2047 449.06 81.1951C468.667 83.1027 470.578 108.233 489.604 110.223C511.953 112.545 520.843 79.0388 545.435 79.9511C565.79 80.6975 568.781 103.92 590.05 104.666C612.316 105.496 618.547 80.3658 641.894 81.1122C660.172 81.6928 661.003 97.3678 681.358 101.017C708.027 105.744 716.335 80.7805 747.408 81.361C774.825 81.8586 778.813 101.432 803.489 99.1924C829.41 96.8702 835.725 74.3114 856.163 74.809C867.628 75.0578 883.414 82.6051 901.941 115.282" stroke="#FFD800" stroke-width="7" stroke-miterlimit="10"/>
</g>
<defs>
<clipPath id="clip0">
<rect width="910" height="122" fill="white"/>
</clipPath>
</defs>
</svg>
