<svg width="43" height="40" viewBox="0 0 43 40" fill="none" xmlns="http://www.w3.org/2000/svg">
<path d="M39.6923 7.99982H31.2825C30.8921 5.76303 29.6953 3.73231 27.9046 2.26789C26.1138 0.80347 23.8448 0 21.5 0C19.1552 0 16.8862 0.80347 15.0954 2.26789C13.3047 3.73231 12.1079 5.76303 11.7175 7.99982H3.30769C2.43074 8.00078 1.58999 8.33823 0.969888 8.93814C0.349789 9.53805 0.00098491 10.3514 0 11.1998V36.8C0.00098491 37.6484 0.349789 38.4618 0.969888 39.0617C1.58999 39.6616 2.43074 39.999 3.30769 40H39.6923C40.5693 39.999 41.41 39.6616 42.0301 39.0617C42.6502 38.4618 42.999 37.6484 43 36.8V11.1998C42.999 10.3514 42.6502 9.53805 42.0301 8.93814C41.41 8.33823 40.5693 8.00078 39.6923 7.99982ZM21.5 3.1998C22.9662 3.20165 24.3904 3.67382 25.5495 4.54239C26.7087 5.41097 27.5374 6.6269 27.906 7.99982H15.094C15.4626 6.6269 16.2913 5.41097 17.4505 4.54239C18.6096 3.67382 20.0338 3.20165 21.5 3.1998ZM39.6923 36.8H3.30769V11.1998H11.5769V15.9999C11.5769 16.4242 11.7512 16.8312 12.0613 17.1312C12.3715 17.4313 12.7921 17.5999 13.2308 17.5999C13.6694 17.5999 14.0901 17.4313 14.4002 17.1312C14.7104 16.8312 14.8846 16.4242 14.8846 15.9999V11.1998H28.1154V15.9999C28.1154 16.4242 28.2896 16.8312 28.5998 17.1312C28.9099 17.4313 29.3306 17.5999 29.7692 17.5999C30.2079 17.5999 30.6285 17.4313 30.9387 17.1312C31.2488 16.8312 31.4231 16.4242 31.4231 15.9999V11.1998H39.6923V36.8Z" fill="black"/>
</svg>
