<svg id="Layer_1" data-name="Layer 1" xmlns="http://www.w3.org/2000/svg" width="373mm" height="210mm" viewBox="0 0 1057.32 595.28">
  <defs>
    <style>
      .cls-1 {
        fill: none;
        stroke: #ffd800;
        stroke-miterlimit: 10;
        stroke-width: 7px;
      }
    </style>
  </defs>
  <path class="cls-1" d="M-12.5,2.5c38.42,42.46,65.78,48.73,84,46,31.57-4.71,39.72-36.89,71-37,31.83-.12,38.94,33.06,71,32,28.85-1,33-28.08,63-29,28.31-.87,32.83,22.92,64,24,30,1,33.84-20.71,65-21,33.84-.32,39.81,25.18,71,22,26.38-2.68,30.76-21.77,55-20,22.34,1.63,24.52,18.24,45,19,26.74,1,32.43-26.92,59-28,28.37-1.15,34.76,30.1,64,30,28.25-.09,33.81-29.23,62-29,28,.23,32.77,29.05,61,30,29.57,1,35.09-30.17,67-32,32.46-1.86,38.51,28.41,73,28,33.3-.39,44.7-29,74.53-25,18.22,2.45,31.6,15.49,40,26"/>
  <path class="cls-1" d="M-9,56C2,73.1,19.53,94.11,43,96c31,2.5,42.33-30.82,79-32,35.78-1.15,43,30,77,27,33.14-2.9,36.53-33.4,71-36,28.89-2.18,33.6,18.71,66,18,33.51-.74,37.19-23.28,68-23,35,.31,42,29.5,73,26,27-3,32.64-26.51,56-24,21.39,2.3,23.35,22.7,43,24,25.3,1.68,32.17-31.46,60-33,25.18-1.4,29.81,25.16,59,27,29.36,1.85,35.34-24.34,66-24,31.42.35,36.73,28,66,27,30.3-1,34.8-31,65-32,29.81-1,34.75,27.83,66,28,30.91.17,41.72-28,71-25,17.38,1.77,30.57,13.41,39,23"/>
  <path class="cls-1" d="M-12.15,120.71C.75,131.87,21,145.61,44.35,143.5c32.48-2.95,40.37-33.86,71.25-35.55,32.81-1.8,39.84,32.21,72.7,31.43,35.72-.85,43.74-41.45,78.13-40.7,29.69.64,34.31,31.1,64.7,31.6,33.06.55,41.32-35.25,73.29-33.59,29,1.5,34.09,31.48,61.68,30.67,27.82-.81,35.21-31.66,59.38-29.29,23.58,2.31,25.89,32.57,48.77,35,26.89,2.8,37.59-37.55,67.23-36.46,24.5.9,28.14,28.87,53.65,29.84,26.76,1,34.34-29.29,62.41-28.35,22,.73,23,19.6,47.53,24,32,5.72,42.12-24.39,79.5-23.72,33,.58,37.76,24.21,67.48,21.54,31.19-2.8,38.81-30,63.38-29.38,13.76.34,32.79,9.37,55.07,48.82"/>
  <path class="cls-1" d="M-7,169c11.7,8.46,29.66,18.41,50,16,32.55-3.86,39.13-35.58,68-38,32.18-2.69,40.57,35.33,75,35,34.2-.33,40.92-38,75-38,33.87,0,43.08,37.21,74,34,28.35-2.94,31.64-35.37,59-37,29.18-1.74,38.15,34.37,68,33,28-1.29,33.86-33.72,60-33,26.78.74,32.75,35.11,58,35,27.27-.12,35.59-40.28,61-39,23.49,1.18,27.41,36.07,52,38,25.71,2,35.72-35,62-33,22.82,1.72,24.27,30.29,49,35,30,5.72,42.66-33.64,79-33,32.84.58,39.7,33,71,31,29.22-1.9,36.55-31,62-31,13.29,0,32.54,8,56,47"/>
  <path class="cls-1" d="M-6,208c7.88,6.88,21.36,16.55,39,18,34.22,2.82,46-28.41,81-29,33.58-.56,38.89,27.83,72,26,32.67-1.8,36.46-29.93,67-31,35.84-1.26,45.9,36.93,79,34,31.19-2.76,37-38,65-37,27.67,1,33.47,35.86,60,36,28.78.16,38-40.81,64-39,25.84,1.8,30.82,43.2,55,44,26.09.87,35.06-46.81,63-47,24.68-.17,30.12,37,58,39,29.07,2.12,42.15-36.87,68-32,20.52,3.87,19.55,29.82,41,35,26,6.27,37.61-29.35,73-31,33-1.53,40.69,28.56,76,26,25-1.81,30-17.5,53-19,26.73-1.74,50.2,17.47,67,36"/>
  <path class="cls-1" d="M-11,247c8.69,12.62,22.21,27.69,40,29,30.62,2.26,42.83-38.53,76-39,31-.44,36.71,35,69,36,35.5,1.09,45.94-41.23,80-39,30.81,2,35.76,37.53,65,38,33,.54,43.92-44.49,74-42,28,2.32,33,42.43,59,43,28.61.63,39-47.44,66-46,26,1.39,31.5,46.87,57,48,27.48,1.21,39.32-50.8,66-49,24,1.62,27.88,44.69,53,47,27,2.48,40.28-45.67,67-43,24.54,2.45,27.4,44.47,52,47,26.74,2.75,39.83-45.19,68-43,24.41,1.9,27.14,38.86,52,42,31,3.92,47.9-51,80-50,13.08.39,32.36,10.17,55,59"/>
  <path class="cls-1" d="M-6,305c7.41,10.05,19.07,22.33,34,23,29.61,1.32,41.34-44.42,72-45,26.92-.51,31.5,34.48,61,37,35.78,3.05,50.37-46.59,85-43,28.94,3,32,39,60,41,33.81,2.37,48.43-48.73,80-45,26.37,3.12,28.61,40.25,55,43,30.62,3.2,45.55-44.91,75-41,25.53,3.39,28.27,41.39,52,43,27.28,1.85,38.92-47.35,67-46,24.88,1.19,29.61,40.5,55,42,28.41,1.67,41.76-46.4,67-43,22,3,21.8,40.75,46,46,27.5,6,45.25-39.06,75-34,25.24,4.29,26.26,39.05,50,42,27.65,3.44,41.22-41.86,72-43,14.14-.52,35.09,8.16,62,54"/>
  <path class="cls-1" d="M-10,341c8.73,15.72,20.91,31.53,36,32,28.5.9,41-53.74,69-53,25.8.68,30.22,47.54,59,51,31.95,3.84,47.55-51.41,82-49,30.55,2.14,35.93,46.82,65,48,34.57,1.4,50.84-60.85,80-57,26.33,3.48,28.38,56.26,54,59,28.24,3,45.22-59.06,74-56,24.68,2.62,27,49.85,52,53,30.42,3.84,52.4-63.13,79-58,22,4.26,21.63,53.09,43,56,22.16,3,35.79-47.72,61-46,24.08,1.64,27.71,49,53,52,27.24,3.21,42.07-49.49,71-47,26.24,2.25,30.24,47,56,49,26.91,2.1,37.35-45.56,70-51,17.1-2.85,43,5.43,81,56"/>
  <path class="cls-1" d="M-8,394c8.36,10.36,21,22.36,37,23,25.31,1,33.46-27.48,60-30,30.27-2.87,37.15,32.54,70,34,37.15,1.65,50.36-42.64,84-38,27.8,3.84,30.3,35.68,55,37,34.47,1.84,51.27-59,80-55,24.25,3.41,25.26,48.61,50,52,27.31,3.74,42.26-49.09,73-47,27,1.84,31.15,43.67,59,46,30.15,2.53,43.45-45,73-42,27.33,2.76,32.72,45.08,57,45,25.21-.08,33.7-45.74,58-45,22.36.68,25.92,39.65,51,43,28.22,3.77,42-43.15,73-41,26.55,1.84,29.57,37.08,57,40,28.64,3.05,40.28-33.79,79-43,28.48-6.77,55.76,5.18,74,16"/>
  <path class="cls-1" d="M-7,450c6.37,10.44,17,23.92,32,26,27.42,3.78,40.41-34.35,74-35,26.72-.52,30.18,23.38,59,24,31.92.69,37.44-28.41,71-30,31.87-1.51,37.37,24.23,70,23,33.45-1.26,38.34-28.72,69-28,31.85.75,36.61,30.6,68,31,30.95.39,36.9-28.5,69-28,28.45.44,31.9,23.26,61,24,31.84.81,38-26.27,68-25,31.63,1.34,38,31.92,66,30,27.56-1.89,32.38-32.16,58-32s30.46,30.59,57,32c28.56,1.52,36.82-33,66-32,27.58.91,32.87,32.13,59,32,26.63-.14,33.65-32.63,64-39,17-3.56,39.09,1.5,68,26"/>
  <path class="cls-1" d="M-14,491c15.36,20.39,30,28,43,29,28.39,2.23,38.76-27.54,73-29,28.19-1.2,31.19,18.54,59,17,35.05-1.94,44.28-34.07,71-30,22.87,3.49,22.15,28,45,33,32.9,7.27,50.76-39.87,88-36,30.16,3.13,33.14,35.56,63,37,31.59,1.52,40.3-34.21,72-33,31.14,1.19,36.25,36.19,66,37,33.36.91,42-42.69,76-43,33.82-.31,44.26,42.54,76,39,26.52-3,32.3-34.33,57-33,20.42,1.1,22.23,22.85,46,27,24.62,4.3,31.49-17.5,62-19,32.94-1.62,38.24,23.13,69,21,30.07-2.08,36.74-26.54,66-29,23.77-2,44.42,12,58,24"/>
  <path class="cls-1" d="M0,558a65.42,65.42,0,0,0,29,8c31.5.81,39.7-24.4,69-28,32.43-4,39.78,24.79,75,21,26.76-2.88,29.33-20.2,54-20,27.59.23,31.53,22,58,24,32.7,2.51,38.69-29.75,76-33,34.75-3,42.29,23.84,79,20,30.61-3.2,33-22.69,61-23,32.37-.36,37.35,25.61,68,26,35.89.46,43.18-35,78-34,31.71.88,35.56,30.53,69,31,29.39.41,36.18-22.36,67-20,24.1,1.85,25.17,16.18,49,19,33.22,3.94,40.63-22.78,77-26,37.62-3.33,48.88,23.56,90,25,31,1.09,56.36-13,72-24"/>
</svg>
