<svg id="Layer_1" data-name="Layer 1" xmlns="http://www.w3.org/2000/svg" viewBox="0 0 37 36"><defs><style>.cls-1{fill:#e2a08a;fill-rule:evenodd;}</style></defs><path class="cls-1" d="M10.87.11C12.85,0,13.47,0,18.5,0s5.65,0,7.63.11a13.9,13.9,0,0,1,4.49.82A9.33,9.33,0,0,1,33.9,3,8.75,8.75,0,0,1,36,6.13a12.52,12.52,0,0,1,.86,4.31c.09,1.89.11,2.5.11,7.32s0,5.43-.11,7.32A12.52,12.52,0,0,1,36,29.39a8.75,8.75,0,0,1-2.13,3.15,9.33,9.33,0,0,1-3.28,2.05,13.9,13.9,0,0,1-4.49.82c-2,.09-2.6.11-7.63.11s-5.65,0-7.63-.11a14,14,0,0,1-4.49-.82A9.33,9.33,0,0,1,3.1,32.54,8.75,8.75,0,0,1,1,29.39a12.52,12.52,0,0,1-.86-4.31C0,23.19,0,22.58,0,17.76s0-5.43.11-7.32A12.52,12.52,0,0,1,1,6.13,8.65,8.65,0,0,1,3.11,3a9.2,9.2,0,0,1,3.27-2A14,14,0,0,1,10.87.11ZM26,3.3c-2-.08-2.54-.1-7.48-.1S13,3.22,11,3.3a10.36,10.36,0,0,0-3.43.62A5.79,5.79,0,0,0,5.46,5.24a5.51,5.51,0,0,0-1.38,2,9.3,9.3,0,0,0-.64,3.3c-.09,1.88-.11,2.44-.11,7.18s0,5.3.11,7.18a9.3,9.3,0,0,0,.64,3.3,5.51,5.51,0,0,0,1.38,2A5.74,5.74,0,0,0,7.59,31.6a10.36,10.36,0,0,0,3.43.62c2,.08,2.54.1,7.48.1s5.52,0,7.48-.1a10.36,10.36,0,0,0,3.43-.62,5.79,5.79,0,0,0,2.13-1.32,5.51,5.51,0,0,0,1.38-2,9.3,9.3,0,0,0,.64-3.3c.09-1.88.11-2.44.11-7.18s0-5.3-.11-7.18a9.3,9.3,0,0,0-.64-3.3,5.43,5.43,0,0,0-1.38-2,5.66,5.66,0,0,0-2.13-1.32A10.36,10.36,0,0,0,26,3.3ZM16.14,23.23a6.42,6.42,0,0,0,4.15.21,6.21,6.21,0,0,0,3.35-2.38,5.74,5.74,0,0,0-.78-7.49,6.2,6.2,0,0,0-2.28-1.39,6.6,6.6,0,0,0-2.68-.32,6.41,6.41,0,0,0-2.57.82,6.11,6.11,0,0,0-2,1.79,5.78,5.78,0,0,0-.78,5,5.86,5.86,0,0,0,1.34,2.26A6,6,0,0,0,16.14,23.23ZM11.78,11.31a9.35,9.35,0,0,1,3.08-2,9.81,9.81,0,0,1,7.28,0,9.35,9.35,0,0,1,3.08,2,8.84,8.84,0,0,1,2.07,9.94,9.1,9.1,0,0,1-2.07,3,9.79,9.79,0,0,1-13.44,0,8.86,8.86,0,0,1,0-12.91ZM30.12,10a2.17,2.17,0,0,0,.51-.7,2.1,2.1,0,0,0,0-1.68,2.19,2.19,0,0,0-.49-.72,2.44,2.44,0,0,0-.75-.47,2.41,2.41,0,0,0-.88-.16,2.55,2.55,0,0,0-.87.18,2.31,2.31,0,0,0-.73.5,2.1,2.1,0,0,0,0,3,2.32,2.32,0,0,0,1.55.63A2.28,2.28,0,0,0,30.12,10Z"/></svg>