<svg width="37" height="36" viewBox="0 0 37 36" fill="none" xmlns="http://www.w3.org/2000/svg">
<path fill-rule="evenodd" clip-rule="evenodd" d="M10.873 0.10656C12.8457 0.0193745 13.4747 0 18.5 0C23.5253 0 24.1543 0.0209891 26.1254 0.10656C28.0965 0.192131 29.4419 0.494051 30.6192 0.931593C31.852 1.37882 32.9704 2.07792 33.8954 2.98207C34.8372 3.86845 35.5637 4.94051 36.0279 6.12559C36.4854 7.25577 36.7982 8.54741 36.889 10.4364C36.9798 12.3335 37 12.9374 37 17.76C37 22.5843 36.9782 23.1881 36.889 25.082C36.7999 26.971 36.4854 28.2626 36.0279 29.3928C35.5637 30.5781 34.836 31.6519 33.8954 32.5396C32.9704 33.4437 31.852 34.1412 30.6192 34.5868C29.4419 35.026 28.0965 35.3263 26.1287 35.4135C24.1543 35.5006 23.5253 35.52 18.5 35.52C13.4747 35.52 12.8457 35.499 10.873 35.4135C8.90523 35.3279 7.55978 35.026 6.3825 34.5868C5.14792 34.1411 4.02934 33.4425 3.10464 32.5396C2.16346 31.6527 1.43512 30.5793 0.97041 29.3944C0.514637 28.2643 0.201818 26.9726 0.111 25.0836C0.0201818 23.1865 0 22.5827 0 17.76C0 12.9357 0.0218636 12.3319 0.111 10.4397C0.200136 8.54741 0.514637 7.25577 0.97041 6.12559C1.43581 4.94064 2.1647 3.86734 3.10632 2.98045C4.02971 2.07712 5.14716 1.37792 6.38082 0.931593C7.5581 0.494051 8.90523 0.193746 10.873 0.10656ZM25.9757 3.30336C24.0248 3.21779 23.4395 3.20003 18.5 3.20003C13.5605 3.20003 12.9752 3.21779 11.0243 3.30336C9.21973 3.38248 8.24091 3.67148 7.58837 3.91528C6.7256 4.23818 6.10837 4.62083 5.46087 5.24243C4.84708 5.81568 4.37472 6.51354 4.07841 7.28483C3.82446 7.91128 3.52341 8.85094 3.441 10.5834C3.35187 12.4562 3.33337 13.0181 3.33337 17.76C3.33337 22.5019 3.35187 23.0638 3.441 24.9367C3.52341 26.6691 3.82446 27.6087 4.07841 28.2352C4.37441 29.0053 4.847 29.7044 5.46087 30.2776C6.05791 30.8669 6.78614 31.3206 7.58837 31.6048C8.24091 31.8485 9.21973 32.1376 11.0243 32.2167C12.9752 32.3022 13.5588 32.32 18.5 32.32C23.4412 32.32 24.0248 32.3022 25.9757 32.2167C27.7803 32.1376 28.7591 31.8485 29.4117 31.6048C30.2744 31.2818 30.8917 30.8992 31.5392 30.2776C32.153 29.7044 32.6256 29.0053 32.9216 28.2352C33.1756 27.6087 33.4766 26.6691 33.559 24.9367C33.6482 23.0638 33.6667 22.5019 33.6667 17.76C33.6667 13.0181 33.6482 12.4562 33.559 10.5834C33.4766 8.85094 33.1756 7.91128 32.9216 7.28483C32.5853 6.45657 32.1867 5.86403 31.5392 5.24243C30.942 4.65324 30.2151 4.19978 29.4117 3.91528C28.7591 3.67148 27.7803 3.38248 25.9757 3.30336ZM16.1371 23.2349C17.4567 23.7623 18.9261 23.8335 20.2944 23.4363C21.6626 23.0391 22.8448 22.1983 23.639 21.0573C24.4332 19.9164 24.7901 18.5461 24.6488 17.1806C24.5075 15.815 23.8768 14.5389 22.8643 13.5703C22.2189 12.951 21.4385 12.4769 20.5793 12.182C19.7201 11.8871 18.8035 11.7787 17.8954 11.8647C16.9873 11.9507 16.1104 12.2289 15.3278 12.6792C14.5451 13.1296 13.8763 13.741 13.3693 14.4693C12.8623 15.1977 12.5299 16.0248 12.3959 16.8913C12.2619 17.7578 12.3297 18.642 12.5944 19.4803C12.8591 20.3186 13.3141 21.0902 13.9267 21.7394C14.5393 22.3887 15.2942 22.8994 16.1371 23.2349ZM11.7761 11.3051C12.6591 10.4574 13.7074 9.78496 14.8611 9.32621C16.0147 8.86745 17.2513 8.63132 18.5 8.63132C19.7488 8.63132 20.9853 8.86744 22.139 9.3262C23.2927 9.78496 24.3409 10.4574 25.2239 11.3051C26.1069 12.1527 26.8074 13.1591 27.2852 14.2666C27.7631 15.3742 28.0091 16.5612 28.0091 17.76C28.0091 18.9588 27.7631 20.1459 27.2852 21.2534C26.8074 22.361 26.1069 23.3673 25.2239 24.215C23.4406 25.9269 21.022 26.8887 18.5 26.8887C15.9781 26.8887 13.5594 25.9269 11.7761 24.215C9.9928 22.503 8.99096 20.1811 8.99096 17.76C8.99096 15.3389 9.9928 13.017 11.7761 11.3051ZM30.118 9.99082C30.3368 9.79266 30.512 9.55437 30.6332 9.29006C30.7543 9.02575 30.819 8.74078 30.8234 8.45204C30.8278 8.1633 30.7718 7.87664 30.6587 7.60905C30.5456 7.34146 30.3777 7.09837 30.165 6.89418C29.9523 6.68998 29.6991 6.52883 29.4204 6.42027C29.1416 6.31171 28.843 6.25794 28.5423 6.26215C28.2415 6.26636 27.9447 6.32846 27.6693 6.44478C27.394 6.5611 27.1458 6.72926 26.9394 6.93932C26.5379 7.34785 26.3182 7.89049 26.3267 8.45204C26.3352 9.01359 26.5714 9.54985 26.9851 9.94697C27.3987 10.3441 27.9573 10.5708 28.5423 10.579C29.1272 10.5872 29.6925 10.3762 30.118 9.99082Z" fill="black"/>
</svg>
