<svg width="345" height="138" viewBox="0 0 345 138" fill="none" xmlns="http://www.w3.org/2000/svg">
<g filter="url(#filter0_d)">
<path d="M17.6521 126.907C20.4239 127.983 22.7384 128.473 24.8263 128.497C37.4694 128.643 41.8403 111.756 43.3019 95.6482C43.5874 91.0111 43.7568 86.3728 43.8089 81.8491L43.8597 77.4414L43.7811 74.1923L48.0982 72.0379C52.8793 69.8888 57.6564 68.0877 62.1948 66.8639C63.1254 66.6426 63.8334 65.6067 62.6801 65.0134C60.1443 63.5921 47.9197 67.3955 43.6039 69.4339C43.4829 59.8039 42.7337 54.3429 42.6204 54.1096C42.6378 52.6017 39.758 50.8284 38.7034 51.7443C39.0554 51.4003 32.5743 60.1422 30.689 62.6727C29.2717 64.8605 32.2915 64.5473 32.8741 64.322C34.5074 63.5287 37.6793 60.085 38.8525 58.9385L39.2045 58.5945C39.5031 62.8902 39.7016 65.7927 39.7535 71.3617L35.6684 73.5188C19.4318 83.1923 5.4724 96.6044 4.75746 108.313C4.66124 116.664 10.146 123.92 17.6521 126.907ZM39.3822 93.5149C37.6725 111.012 32.7552 124.993 22.4318 124.874C20.808 124.855 19.3041 124.49 17.3402 123.771C11.7966 121.619 8.61433 115.898 8.67848 110.33C9.50005 99.435 23.1088 86.2509 38.9947 76.8053L39.6947 76.4653L39.7813 79.0185C39.8438 83.6595 39.5544 88.6445 39.3822 93.5149ZM39.4595 46.5326C40.7261 47.3593 41.886 47.3726 42.2406 46.7967C43.182 45.6475 43.45 42.5183 43.4634 41.3584C43.4727 40.5465 42.6728 39.4932 41.4036 38.8985C40.3663 38.3065 39.3197 38.5265 39.0784 39.3358C39.0477 42.0036 38.3317 43.7355 38.2117 44.0821C37.857 44.658 38.5396 45.826 39.4595 46.5326ZM78.1741 76.4446C86.1829 76.0729 93.6719 70.4748 96.9972 63.7846C98.6585 60.5556 99.1532 57.8931 96.4534 60.6462C91.5229 65.6937 83.3099 73.7196 72.4066 73.594C68.3469 73.5472 64.3299 69.7887 64.0073 67.5808C68.067 67.6276 73.0868 64.9013 74.6374 61.2069C75.9521 57.8578 72.6284 54.3393 69.0327 54.2978C63.3464 54.4644 59.8065 59.6439 59.7477 64.7476C59.7343 65.9075 59.9529 67.0701 60.2889 68.118C62.5259 75.3363 71.3266 76.7138 78.1741 76.4446ZM70.8431 58.263C72.1043 59.5536 68.8205 62.648 63.9234 64.7957C63.8408 61.8945 68.4353 55.7991 70.8431 58.263ZM121.974 62.1003C122.05 65.5814 120.443 74.1474 115.263 70.6075C112.845 69.0716 112.65 65.8211 112.328 63.6132C112.45 63.0346 112.569 62.804 112.34 62.5693C112.593 60.7161 109.017 58.9348 108.649 60.6707C108.415 60.9 108.528 61.1333 108.4 62.1759C108.033 63.7958 105.276 71.5365 102.364 72.5471C101.432 72.8843 99.6949 72.6323 99.2496 71.0031C98.9137 69.9551 98.8097 68.9099 98.8231 67.7499C98.8725 63.4582 101.131 58.7279 102.666 56.4255C103.252 55.8522 102.685 54.8016 101.882 53.9803C100.962 53.2736 99.8047 53.0283 99.5647 53.7216C97.4475 56.2493 95.4101 61.9102 95.2554 65.2727C95.1193 67.0112 95.3313 68.7538 95.8925 70.3844C96.3405 71.7816 97.247 73.6482 99.0882 74.9455C100.356 75.6561 101.628 76.0188 102.672 76.0308C106.384 76.0736 108.746 72.3886 110.062 68.9235C112.342 72.43 116.491 74.798 119.278 74.598C123.92 74.4195 125.844 68.5253 125.885 64.9295C127.851 65.5322 129.702 65.9016 131.79 65.9256C135.27 65.9657 138.877 65.0792 142.495 63.1488C144.363 62.1262 146.835 59.0225 143.575 60.029C139.613 61.6075 135.775 62.3753 132.412 62.3365C129.86 62.3071 127.545 61.8164 125.7 60.8671C125.954 59.0139 124.252 55.6301 122.034 56.8806C120.865 57.6792 120.495 59.5311 121.974 62.1003ZM157.579 77.3595C165.588 76.9877 173.077 71.3896 176.402 64.6995C178.063 61.4704 178.558 58.8079 175.858 61.561C170.928 66.6086 162.715 74.6345 151.811 74.5088C147.752 74.4621 143.735 70.7035 143.412 68.4957C147.472 68.5425 152.492 65.8161 154.042 62.1217C155.357 58.7726 152.033 55.2541 148.438 55.2127C142.751 55.3792 139.211 60.5588 139.153 65.6624C139.139 66.8223 139.358 67.9849 139.694 69.0329C141.931 76.2511 150.731 77.6286 157.579 77.3595ZM150.248 59.1778C151.509 60.4684 148.225 63.5628 143.328 65.7105C143.246 62.8094 147.84 56.7139 150.248 59.1778ZM186.272 83.2584C191.84 83.3226 195.149 78.0243 197.411 72.9461C197.987 83.3934 199.903 98.3805 203.681 102.716C204.826 104.006 205.283 104.591 206.674 104.723C206.91 104.378 207.727 103.923 206.699 102.519C203.392 97.6086 201.43 76.5886 201.534 67.5412L201.594 62.3216C201.926 33.5555 203.959 18.1499 207.603 3.92291C207.727 3.22829 207.041 2.40833 205.649 2.39229C204.374 2.2616 202.976 2.82552 202.852 3.52014C199.1 17.0498 197.435 40.6962 197.213 59.9509L197.144 65.9825C193.834 71.2808 187.451 81.6479 183.187 79.1626C180.655 77.3933 179.827 68.6832 179.953 57.7799C180.203 36.0894 184.031 5.85548 184.753 3.65964C184.76 3.07968 183.842 2.14105 182.689 1.54773C181.534 1.07039 180.837 1.17837 180.713 1.87298C179.15 6.61129 175.925 34.88 175.681 55.9906C175.553 67.1259 176.259 76.2986 178.433 78.9918C179.686 80.9784 182.56 83.2157 186.272 83.2584ZM230.527 78.1999C238.536 77.8282 246.025 72.2301 249.35 65.54C251.012 62.3109 251.506 59.6484 248.807 62.4015C243.876 67.449 235.663 75.4749 224.76 75.3493C220.7 75.3025 216.683 71.544 216.36 69.3361C220.42 69.3829 225.44 66.6566 226.991 62.9622C228.305 59.6131 224.982 56.0946 221.386 56.0532C215.7 56.2197 212.16 61.3992 212.101 66.5029C212.087 67.6628 212.306 68.8254 212.642 69.8733C214.879 77.0916 223.68 78.4691 230.527 78.1999ZM223.196 60.0183C224.457 61.3089 221.174 64.4033 216.277 66.551C216.194 63.6498 220.789 57.5544 223.196 60.0183ZM248.202 75.9674C248.646 77.7126 252.456 79.2646 252.357 77.7554C252.86 74.397 252.868 73.701 253.227 72.7771C256.103 64.8057 265.812 57.8411 271.61 58.0239L271.483 58.9505C271.357 59.8771 272.972 60.5918 274.618 58.7546C275.44 57.836 273.844 55.3815 271.182 54.8868C264.814 53.7693 256.154 60.398 253.211 64.0763L253.379 59.554C253.387 58.858 252.704 57.6901 251.667 57.0981C250.514 56.5048 249.354 56.4914 249.345 57.3033C247.552 71.8997 247.75 74.9181 248.202 75.9674ZM303.459 75.908L300.535 77.9625C288.72 86.5269 279.307 98.0192 277.464 106.931C276.836 111.1 278.644 115.297 281.738 118.581C284.948 121.866 289.567 123.775 292.473 123.229C302.589 121.257 305.903 105.402 307 90.7978L307.472 80.0145L307.604 78.6239L310.995 76.3428C315.9 73.4992 323.603 69.4116 328.259 68.0732C329.19 67.8519 329.308 67.6212 328.275 66.6813C325.635 64.2147 310.821 71.2365 307.668 73.0563L307.551 73.171L307.556 72.707C307.518 65.9781 306.993 61.2157 306.879 60.9824C306.778 59.7052 304.822 58.2905 303.662 58.2772C303.198 58.2718 302.733 58.3825 302.614 58.6131C302.497 58.7278 302.381 58.7264 302.612 58.8451C302.494 58.9598 302.261 59.0731 302.258 59.3051C301.984 63.0141 291.62 76.4676 286.78 73.6277C284.822 72.4451 284.629 69.0786 284.418 67.2201C284.553 65.5975 284.918 64.0936 285.163 62.9364C285.757 61.7831 286.345 61.0938 286.81 60.9832C287.393 60.7579 287.405 59.714 286.487 58.7753C285.57 57.8367 284.3 57.358 283.601 57.582C282.437 57.9166 281.728 59.0685 281.249 60.3391C280.652 61.8403 280.401 63.4615 280.382 65.0854C280.36 67.0573 280.801 69.0345 281.362 70.6651C282.827 74.3942 286.506 77.3368 290.333 77.3809C294.161 77.425 299.55 72.8468 302.966 68.3618L303.459 75.908ZM289.382 119.713C287.986 120.045 285.792 119.091 284.071 117.447C282.698 115.807 280.992 112.888 281.729 109.3C283.094 101.543 291.09 92.2386 300.584 83.7634L303.28 81.3583C303.209 97.5986 298.217 118.074 289.382 119.713ZM334.642 76.7313C335.442 77.7846 337.066 77.8033 338.354 76.7741C339.642 75.7448 340.01 74.009 339.21 72.9557C338.41 71.9024 336.786 71.8837 335.498 72.9129C334.21 73.9421 333.842 75.678 334.642 76.7313Z" fill="#FFD800"/>
<path d="M17.6521 126.907L17.4303 127.464L17.435 127.466L17.6521 126.907ZM43.3019 95.6482L43.8995 95.7024L43.9003 95.6937L43.9008 95.685L43.3019 95.6482ZM43.8597 77.4414L44.4597 77.4483L44.4598 77.4376L44.4595 77.4269L43.8597 77.4414ZM43.7811 74.1923L43.5132 73.6554L43.1721 73.8256L43.1813 74.2068L43.7811 74.1923ZM48.0982 72.0379L47.8523 71.4906L47.8412 71.4956L47.8303 71.501L48.0982 72.0379ZM62.1948 66.8639L62.056 66.2802L62.0472 66.2823L62.0386 66.2846L62.1948 66.8639ZM62.6801 65.0134L62.3868 65.5368L62.3961 65.542L62.4056 65.5469L62.6801 65.0134ZM43.6039 69.4339L43.004 69.4414L43.0157 70.3753L43.8602 69.9764L43.6039 69.4339ZM42.6204 54.1096L42.0205 54.1026L42.0188 54.2443L42.0807 54.3717L42.6204 54.1096ZM38.7034 51.7443L38.2841 51.3151L39.0968 52.1973L38.7034 51.7443ZM30.689 62.6727L30.2078 62.3142L30.1961 62.33L30.1854 62.3464L30.689 62.6727ZM32.8741 64.322L33.0905 64.8816L33.1138 64.8726L33.1363 64.8617L32.8741 64.322ZM38.8525 58.9385L39.2719 59.3676L39.2719 59.3676L38.8525 58.9385ZM39.2045 58.5945L39.8031 58.5529L39.7131 57.2586L38.7852 58.1654L39.2045 58.5945ZM39.7535 71.3617L40.0336 71.8922L40.3569 71.7216L40.3535 71.3561L39.7535 71.3617ZM35.6684 73.5188L35.3882 72.9882L35.3745 72.9954L35.3613 73.0033L35.6684 73.5188ZM4.75746 108.313L4.15858 108.276L4.15767 108.291L4.1575 108.306L4.75746 108.313ZM39.3822 93.5149L39.9794 93.5732L39.9812 93.5547L39.9819 93.5361L39.3822 93.5149ZM17.3402 123.771L17.123 124.33L17.134 124.334L17.3402 123.771ZM8.67848 110.33L8.08018 110.285L8.07874 110.304L8.07852 110.323L8.67848 110.33ZM38.9947 76.8053L38.7326 76.2656L38.7098 76.2766L38.6881 76.2896L38.9947 76.8053ZM39.6947 76.4653L40.2943 76.445L40.263 75.5223L39.4326 75.9256L39.6947 76.4653ZM39.7813 79.0185L40.3813 79.0104L40.3809 78.9982L39.7813 79.0185ZM39.4595 46.5326L39.094 47.0085L39.1123 47.0225L39.1316 47.0351L39.4595 46.5326ZM42.2406 46.7967L41.7765 46.4165L41.7509 46.4477L41.7297 46.4821L42.2406 46.7967ZM41.4036 38.8985L41.1062 39.4196L41.1272 39.4316L41.149 39.4418L41.4036 38.8985ZM39.0784 39.3358L38.5034 39.1643L38.4794 39.2448L38.4784 39.3289L39.0784 39.3358ZM38.2117 44.0821L38.7226 44.3967L38.7571 44.3406L38.7786 44.2784L38.2117 44.0821ZM17.435 127.466C20.2535 128.56 22.6406 129.072 24.8193 129.097L24.8332 127.898C22.8362 127.875 20.5942 127.405 17.8692 126.347L17.435 127.466ZM24.8193 129.097C31.4837 129.174 35.9011 124.734 38.8024 118.418C41.7017 112.107 43.1669 103.776 43.8995 95.7024L42.7044 95.5939C41.9753 103.629 40.5243 111.795 37.7119 117.918C34.9016 124.036 30.812 127.966 24.8332 127.898L24.8193 129.097ZM43.9008 95.685C44.1868 91.0382 44.3567 86.3898 44.4089 81.856L43.209 81.8422C43.157 86.3557 42.9879 90.9841 42.7031 95.6113L43.9008 95.685ZM44.4089 81.856L44.4597 77.4483L43.2598 77.4345L43.209 81.8422L44.4089 81.856ZM44.4595 77.4269L44.381 74.1778L43.1813 74.2068L43.2599 77.4559L44.4595 77.4269ZM44.0491 74.7291L48.3662 72.5747L47.8303 71.501L43.5132 73.6554L44.0491 74.7291ZM48.3442 72.5851C53.105 70.4452 57.8513 68.6566 62.351 67.4432L62.0386 66.2846C57.4615 67.5188 52.6537 69.3324 47.8523 71.4906L48.3442 72.5851ZM62.3336 67.4476C62.9389 67.3037 63.5338 66.887 63.7734 66.3074C63.9009 65.9991 63.9276 65.6349 63.7706 65.2793C63.6178 64.9333 63.3242 64.67 62.9546 64.4798L62.4056 65.5469C62.6127 65.6535 62.6631 65.7421 62.6728 65.7641C62.6783 65.7765 62.6861 65.7964 62.6644 65.8489C62.6057 65.991 62.3813 66.2028 62.056 66.2802L62.3336 67.4476ZM62.9735 64.49C62.5345 64.2439 61.9543 64.1418 61.3381 64.1123C60.7072 64.0821 59.9687 64.1256 59.1651 64.2221C57.5567 64.4152 55.6265 64.8285 53.6571 65.3459C49.7219 66.3799 45.5493 67.8515 43.3477 68.8914L43.8602 69.9764C45.9743 68.9779 50.0719 67.5286 53.962 66.5065C55.9051 65.996 57.7763 65.5975 59.3081 65.4135C60.0746 65.3215 60.7409 65.2851 61.2807 65.311C61.8353 65.3375 62.1918 65.4275 62.3868 65.5368L62.9735 64.49ZM44.2039 69.4264C44.1432 64.5975 43.925 60.8106 43.7072 58.1981C43.5983 56.8921 43.4895 55.878 43.4001 55.1728C43.3555 54.8207 43.3154 54.5425 43.2822 54.3419C43.2657 54.2422 43.2501 54.157 43.2357 54.0894C43.2278 54.0525 43.2053 53.9404 43.1601 53.8474L42.0807 54.3717C42.0497 54.3078 42.0463 54.2658 42.062 54.3392C42.0711 54.3819 42.0833 54.4474 42.0983 54.5381C42.1282 54.7185 42.1662 54.9805 42.2096 55.3236C42.2964 56.0089 42.4036 57.0056 42.5114 58.2978C42.7267 60.8817 42.9436 64.6403 43.004 69.4414L44.2039 69.4264ZM43.2204 54.1165C43.2269 53.5519 42.9664 53.028 42.6371 52.6059C42.3018 52.1763 41.8526 51.7958 41.376 51.5055C40.9012 51.2164 40.3667 50.9972 39.8495 50.9217C39.3405 50.8474 38.7573 50.9027 38.31 51.2913L39.0968 52.1973C39.1768 52.1278 39.3491 52.0614 39.6762 52.1091C39.995 52.1556 40.377 52.3022 40.7519 52.5305C41.1248 52.7575 41.4582 53.0458 41.691 53.3441C41.9297 53.65 42.0226 53.9133 42.0205 54.1026L43.2204 54.1165ZM39.1228 52.1734C39.1191 52.177 39.1082 52.1875 39.0923 52.2006C39.0866 52.2054 39.0372 52.2476 38.9619 52.2816C38.9296 52.2961 38.8247 52.3416 38.6821 52.3334C38.4908 52.3225 38.2901 52.2157 38.1839 52.0101C38.1058 51.8588 38.116 51.7214 38.1198 51.6806C38.125 51.6248 38.137 51.5823 38.143 51.5627C38.1555 51.5218 38.1695 51.4926 38.1732 51.485C38.1787 51.4734 38.1831 51.4654 38.1846 51.4628C38.1875 51.4575 38.1879 51.4572 38.1833 51.4645C38.1637 51.4959 38.1192 51.5621 38.0453 51.6681C37.9014 51.8743 37.6725 52.1937 37.3789 52.5988C36.7928 53.4075 35.958 54.5455 35.0522 55.7746C33.2409 58.2325 31.1499 61.0497 30.2078 62.3142L31.1701 63.0311C32.1133 61.7652 34.2056 58.9462 36.0182 56.4865C36.9243 55.2569 37.7616 54.1157 38.3506 53.303C38.6446 52.8973 38.879 52.5704 39.0295 52.3546C39.1028 52.2495 39.1634 52.1606 39.2009 52.1005C39.2107 52.0849 39.2223 52.0658 39.2335 52.0456C39.2365 52.0403 39.2688 51.9847 39.2905 51.9137C39.297 51.8924 39.3093 51.8486 39.3146 51.7917C39.3185 51.7498 39.3286 51.6115 39.2502 51.4596C39.1437 51.2534 38.9425 51.1464 38.7506 51.1354C38.6072 51.1272 38.5014 51.1728 38.4681 51.1879C38.3905 51.2229 38.3381 51.2672 38.3285 51.2751C38.3088 51.2914 38.2932 51.3062 38.2841 51.3151L39.1228 52.1734ZM30.1854 62.3464C29.802 62.9383 29.5988 63.5349 29.7822 64.0772C29.9725 64.6402 30.4847 64.8813 30.8824 64.9834C31.297 65.0898 31.7581 65.0946 32.1345 65.0651C32.5037 65.0362 32.8672 64.9679 33.0905 64.8816L32.6577 63.7623C32.5897 63.7886 32.3573 63.844 32.0407 63.8688C31.7313 63.893 31.4168 63.8817 31.1808 63.8211C31.0647 63.7913 30.9928 63.7558 30.9533 63.7276C30.9351 63.7145 30.9267 63.7051 30.9235 63.701C30.9208 63.6975 30.9198 63.6955 30.9189 63.6929C30.9165 63.6857 30.8673 63.5009 31.1926 62.9989L30.1854 62.3464ZM33.1363 64.8617C33.6121 64.6306 34.1619 64.2282 34.7153 63.7692C35.277 63.3033 35.8754 62.7512 36.4524 62.1945C37.0302 61.6371 37.5923 61.0697 38.0811 60.5723C38.5737 60.071 38.9843 59.6486 39.2719 59.3676L38.4332 58.5093C38.1341 58.8016 37.7082 59.2397 37.2252 59.7313C36.7382 60.2268 36.1852 60.7849 35.6193 61.3309C35.0525 61.8776 34.4783 62.4068 33.9493 62.8455C33.4119 63.2912 32.9528 63.6167 32.612 63.7822L33.1363 64.8617ZM39.2719 59.3676L39.6239 59.0236L38.7852 58.1654L38.4332 58.5093L39.2719 59.3676ZM38.606 58.6361C38.9042 62.9274 39.1018 65.816 39.1535 71.3673L40.3535 71.3561C40.3014 65.7694 40.1019 62.853 39.8031 58.5529L38.606 58.6361ZM39.4733 70.8311L35.3882 72.9882L35.9485 74.0493L40.0336 71.8922L39.4733 70.8311ZM35.3613 73.0033C27.2078 77.861 19.6102 83.6663 13.9531 89.744C8.31046 95.8061 4.52871 102.215 4.15858 108.276L5.35634 108.35C5.70114 102.703 9.25659 96.5509 14.8315 90.5615C20.392 84.5876 27.8924 78.85 35.9755 74.0342L35.3613 73.0033ZM4.1575 108.306C4.05812 116.932 9.71908 124.396 17.4303 127.464L17.8739 126.349C10.5729 123.444 5.26437 116.397 5.35742 108.32L4.1575 108.306ZM38.7851 93.4565C37.9328 102.179 36.2848 109.967 33.5967 115.54C30.9081 121.114 27.2612 124.329 22.4388 124.274L22.4249 125.474C27.9258 125.537 31.8992 121.822 34.6776 116.061C37.4565 110.3 39.122 102.348 39.9794 93.5732L38.7851 93.4565ZM22.4388 124.274C20.9102 124.256 19.4784 123.915 17.5464 123.207L17.134 124.334C19.1297 125.065 20.7057 125.454 22.4249 125.474L22.4388 124.274ZM17.5573 123.212C12.2829 121.164 9.2167 115.696 9.27844 110.337L8.07852 110.323C8.01196 116.1 11.3104 122.074 17.1231 124.33L17.5573 123.212ZM9.27678 110.375C9.67191 105.135 13.1637 99.2422 18.6246 93.4352C24.0684 87.6463 31.3947 82.0222 39.3014 77.321L38.6881 76.2896C30.7088 81.034 23.2878 86.7247 17.7504 92.6131C12.23 98.4834 8.50663 104.63 8.08018 110.285L9.27678 110.375ZM39.2568 77.345L39.9568 77.005L39.4326 75.9256L38.7326 76.2656L39.2568 77.345ZM39.095 76.4857L39.1816 79.0388L40.3809 78.9982L40.2943 76.445L39.095 76.4857ZM39.1813 79.0266C39.2436 83.6481 38.9554 88.6038 38.7826 93.4937L39.9819 93.5361C40.1533 88.6852 40.444 83.671 40.3812 79.0104L39.1813 79.0266ZM39.1316 47.0351C39.8276 47.4894 40.5313 47.7456 41.1499 47.7892C41.7471 47.8312 42.4058 47.6728 42.7516 47.1113L41.7297 46.4821C41.7208 46.4966 41.6222 46.6194 41.2342 46.5921C40.8675 46.5663 40.358 46.4025 39.7874 46.0302L39.1316 47.0351ZM42.7048 47.1769C43.0073 46.8076 43.2287 46.3172 43.3961 45.815C43.5664 45.3044 43.6948 44.738 43.7911 44.1844C43.9835 43.0786 44.0563 41.974 44.0633 41.3653L42.8634 41.3515C42.8571 41.9028 42.7891 42.9427 42.6089 43.9787C42.5189 44.496 42.4029 44.9999 42.2577 45.4355C42.1097 45.8795 41.9446 46.2112 41.7765 46.4165L42.7048 47.1769ZM44.0633 41.3653C44.0702 40.7705 43.7879 40.1715 43.3783 39.6682C42.9604 39.1549 42.3694 38.6885 41.6581 38.3552L41.149 39.4418C41.707 39.7033 42.1506 40.0608 42.4476 40.4258C42.7529 40.8008 42.8659 41.1344 42.8634 41.3515L44.0633 41.3653ZM41.701 38.3774C41.0855 38.0261 40.419 37.8875 39.8277 38.0028C39.2208 38.1211 38.6971 38.5148 38.5034 39.1643L39.6534 39.5072C39.701 39.3475 39.8213 39.2266 40.0573 39.1806C40.309 39.1315 40.6844 39.1789 41.1062 39.4196L41.701 38.3774ZM38.4784 39.3289C38.4489 41.889 37.7651 43.538 37.6447 43.8858L38.7786 44.2784C38.8982 43.9329 39.6464 42.1181 39.6784 39.3427L38.4784 39.3289ZM37.7008 43.7675C37.5163 44.067 37.4925 44.4019 37.5336 44.6926C37.5747 44.9837 37.6858 45.2737 37.8282 45.5408C38.113 46.0745 38.5719 46.6074 39.094 47.0085L39.825 46.0568C39.4272 45.7512 39.0848 45.3468 38.887 44.9759C38.7881 44.7907 38.7376 44.6366 38.7217 44.5246C38.7059 44.4123 38.7297 44.3851 38.7226 44.3967L37.7008 43.7675ZM78.1741 76.4446L78.1977 77.0442L78.202 77.044L78.1741 76.4446ZM96.9972 63.7846L96.4637 63.5101L96.4599 63.5176L96.9972 63.7846ZM96.4534 60.6462L96.025 60.2261L96.0241 60.2269L96.4534 60.6462ZM64.0073 67.5808L64.0142 66.9809L63.3121 66.9728L63.4136 67.6676L64.0073 67.5808ZM74.6374 61.2069L75.1908 61.4392L75.196 61.4261L74.6374 61.2069ZM69.0327 54.2978L69.0396 53.6979L69.0273 53.6977L69.0151 53.6981L69.0327 54.2978ZM60.2889 68.118L60.862 67.9404L60.8602 67.9349L60.2889 68.118ZM70.8431 58.263L70.414 58.6823L70.414 58.6823L70.8431 58.263ZM63.9234 64.7957L63.3236 64.8128L63.349 65.7028L64.1644 65.3452L63.9234 64.7957ZM78.202 77.044C86.4542 76.6609 94.1244 70.9124 97.5345 64.0517L96.4599 63.5176C93.2194 70.0371 85.9117 75.4848 78.1463 75.8453L78.202 77.044ZM97.5308 64.0591C97.955 63.2346 98.3088 62.4386 98.5573 61.7481C98.7987 61.0776 98.9648 60.4429 98.9607 59.967C98.9588 59.7439 98.9202 59.415 98.6871 59.167C98.4032 58.8649 98.0231 58.8656 97.7474 58.9437C97.486 59.0178 97.2192 59.1804 96.9561 59.3812C96.6838 59.5889 96.3743 59.8699 96.025 60.2261L96.8817 61.0663C97.2074 60.7342 97.473 60.4962 97.684 60.3351C97.9041 60.1672 98.0286 60.1113 98.0746 60.0983C98.1062 60.0893 97.9495 60.1343 97.8128 59.9889C97.727 59.8976 97.7596 59.8378 97.7608 59.9772C97.7629 60.2264 97.6625 60.6907 97.4282 61.3416C97.2012 61.9724 96.8702 62.7201 96.4637 63.5102L97.5308 64.0591ZM96.0241 60.2269C91.0733 65.2953 83.0281 73.1163 72.4135 72.994L72.3997 74.194C83.5916 74.3229 91.9725 66.0921 96.8826 61.0654L96.0241 60.2269ZM72.4135 72.994C70.5568 72.9726 68.6623 72.0956 67.1766 70.9263C66.4384 70.3453 65.8187 69.7056 65.3692 69.091C64.9126 68.4669 64.6618 67.9103 64.601 67.4941L63.4136 67.6676C63.5141 68.3553 63.8864 69.0965 64.4006 69.7995C64.9219 70.5121 65.6207 71.2289 66.4344 71.8693C68.0528 73.143 70.1966 74.1686 72.3997 74.194L72.4135 72.994ZM64.0004 68.1808C66.1566 68.2056 68.532 67.4976 70.5649 66.3155C72.5947 65.1351 74.3497 63.4426 75.1907 61.4391L74.0842 60.9747C73.3745 62.6655 71.8443 64.1834 69.9617 65.2781C68.0821 66.371 65.9178 67.0028 64.0142 66.9809L64.0004 68.1808ZM75.196 61.4261C75.953 59.4976 75.3561 57.5512 74.1322 56.1218C72.9131 54.698 71.0242 53.7208 69.0396 53.6979L69.0258 54.8978C70.6369 54.9164 72.2077 55.7191 73.2207 56.9022C74.2289 58.0797 74.6366 59.567 74.0789 60.9876L75.196 61.4261ZM69.0151 53.6981C62.9128 53.8768 59.209 59.4187 59.1477 64.7407L60.3476 64.7545C60.4039 59.8691 63.78 55.0519 69.0502 54.8976L69.0151 53.6981ZM59.1477 64.7407C59.1334 65.9779 59.3662 67.2054 59.7175 68.3012L60.8602 67.9349C60.5396 66.9348 60.3352 65.8371 60.3476 64.7545L59.1477 64.7407ZM59.7158 68.2956C60.9067 72.1386 63.8471 74.3983 67.2975 75.653C70.7359 76.9033 74.7352 77.1803 78.1977 77.0442L78.1506 75.8451C74.7655 75.9781 70.9407 75.7009 67.7076 74.5252C64.4865 73.3539 61.908 71.3158 60.862 67.9404L59.7158 68.2956ZM70.414 58.6823C70.5047 58.7751 70.5795 58.9276 70.4274 59.2986C70.2674 59.6891 69.8925 60.1944 69.2808 60.7715C68.0691 61.9148 66.0878 63.1913 63.6824 64.2462L64.1644 65.3452C66.656 64.2524 68.7652 62.9078 70.1044 61.6443C70.7682 61.018 71.2838 60.3736 71.5378 59.7537C71.7998 59.1144 71.8121 58.3961 71.2722 57.8436L70.414 58.6823ZM64.5231 64.7786C64.5065 64.1931 64.7322 63.3705 65.1709 62.4666C65.6032 61.5761 66.2129 60.6673 66.8927 59.9217C67.5806 59.1673 68.2982 58.6259 68.9337 58.4022C69.2447 58.2928 69.5148 58.2668 69.7458 58.308C69.9701 58.348 70.1943 58.4575 70.414 58.6823L71.2722 57.8436C70.89 57.4525 70.4439 57.2135 69.9564 57.1266C69.4756 57.0408 68.9923 57.1095 68.5353 57.2703C67.6347 57.5873 66.7574 58.2891 66.006 59.1132C65.2466 59.9461 64.5726 60.9511 64.0914 61.9425C63.6167 62.9205 63.299 63.9477 63.3236 64.8128L64.5231 64.7786ZM121.974 62.1003L122.574 62.0872L122.57 61.9339L122.494 61.801L121.974 62.1003ZM115.263 70.6075L115.602 70.1122L115.593 70.1065L115.585 70.101L115.263 70.6075ZM112.328 63.6132L111.741 63.4888L111.718 63.5938L111.734 63.7L112.328 63.6132ZM112.34 62.5693L111.745 62.488L111.705 62.7788L111.911 62.9887L112.34 62.5693ZM108.649 60.6707L109.069 61.0998L109.199 60.9728L109.236 60.7951L108.649 60.6707ZM108.4 62.1759L108.985 62.3084L108.992 62.279L108.995 62.249L108.4 62.1759ZM102.364 72.5471L102.167 71.9802L102.16 71.9829L102.364 72.5471ZM99.2496 71.0031L99.8284 70.8449L99.825 70.8323L99.821 70.8199L99.2496 71.0031ZM102.666 56.4255L102.246 55.9963L102.201 56.0403L102.167 56.0927L102.666 56.4255ZM101.882 53.9803L102.311 53.5609L102.281 53.5304L102.247 53.5044L101.882 53.9803ZM99.5647 53.7216L100.025 54.1068L100.096 54.0222L100.132 53.9178L99.5647 53.7216ZM95.2554 65.2727L95.8535 65.3195L95.8543 65.3099L95.8547 65.3003L95.2554 65.2727ZM95.8925 70.3844L96.464 70.2012L96.4599 70.1891L95.8925 70.3844ZM99.0882 74.9455L98.7426 75.436L98.7679 75.4538L98.7948 75.4689L99.0882 74.9455ZM110.062 68.9235L110.565 68.5965L109.921 67.6055L109.501 68.7105L110.062 68.9235ZM119.278 74.598L119.254 73.9985L119.245 73.9989L119.235 73.9996L119.278 74.598ZM125.885 64.9295L126.061 64.3559L125.295 64.1208L125.285 64.9226L125.885 64.9295ZM142.495 63.1488L142.777 63.6782L142.783 63.6751L142.495 63.1488ZM143.575 60.029L143.398 59.4557L143.375 59.4628L143.353 59.4716L143.575 60.029ZM125.7 60.8671L125.106 60.7859L125.048 61.2064L125.426 61.4007L125.7 60.8671ZM122.034 56.8806L121.739 56.3579L121.717 56.3706L121.695 56.3852L122.034 56.8806ZM121.374 62.1134C121.41 63.7932 121.035 66.7023 120.05 68.724C119.556 69.7385 118.957 70.4286 118.28 70.706C117.647 70.9655 116.789 70.9237 115.602 70.1122L114.925 71.1029C116.327 72.0613 117.613 72.2763 118.735 71.8164C119.814 71.3745 120.583 70.3692 121.129 69.2496C122.223 67.003 122.613 63.8884 122.574 62.0872L121.374 62.1134ZM115.585 70.101C114.543 69.4392 113.952 68.3943 113.583 67.187C113.21 65.9637 113.089 64.6719 112.921 63.5265L111.734 63.7C111.889 64.7625 112.027 66.1998 112.436 67.5377C112.849 68.8916 113.565 70.2399 114.942 71.114L115.585 70.101ZM112.915 63.7377C112.944 63.6006 112.971 63.4914 112.998 63.3749C113.023 63.2687 113.05 63.145 113.063 63.0235C113.075 62.8969 113.076 62.742 113.026 62.5768C112.975 62.4056 112.882 62.2656 112.769 62.15L111.911 62.9887C111.912 62.9903 111.891 62.9672 111.877 62.9234C111.866 62.8855 111.872 62.8684 111.869 62.9011C111.865 62.9389 111.854 62.9961 111.829 63.1032C111.807 63.2 111.773 63.3366 111.741 63.4888L112.915 63.7377ZM112.934 62.6506C113.026 61.9785 112.765 61.3628 112.399 60.8829C112.031 60.401 111.522 60.004 110.999 59.7388C110.485 59.4788 109.887 59.3105 109.342 59.3791C109.061 59.4144 108.774 59.5161 108.533 59.7227C108.288 59.9329 108.132 60.2174 108.062 60.5462L109.236 60.7951C109.259 60.69 109.295 60.6505 109.315 60.633C109.339 60.6121 109.39 60.5825 109.492 60.5697C109.712 60.542 110.062 60.6094 110.456 60.8094C110.841 61.0042 111.201 61.2915 111.445 61.6105C111.689 61.9316 111.78 62.2335 111.745 62.488L112.934 62.6506ZM108.23 60.2416C108.11 60.3591 108.019 60.4949 107.962 60.6597C107.912 60.8059 107.896 60.9528 107.886 61.0715C107.866 61.3323 107.867 61.5955 107.804 62.1028L108.995 62.249C109.061 61.7137 109.069 61.339 109.083 61.1651C109.091 61.0665 109.098 61.0469 109.096 61.0523C109.094 61.0592 109.089 61.0711 109.08 61.0839C109.072 61.0963 109.067 61.1018 109.069 61.0998L108.23 60.2416ZM107.815 62.0434C107.644 62.7981 106.881 65.0943 105.797 67.3279C105.256 68.4415 104.646 69.5165 104.005 70.3667C103.35 71.2349 102.722 71.7878 102.167 71.9802L102.561 73.1139C103.462 72.801 104.27 72.0075 104.963 71.0894C105.669 70.1533 106.318 69.0024 106.876 67.852C107.99 65.5577 108.789 63.1736 108.985 62.3084L107.815 62.0434ZM102.16 71.9829C101.829 72.1027 101.308 72.1256 100.833 71.9498C100.383 71.7833 99.9934 71.4487 99.8284 70.8449L98.6709 71.1613C98.9511 72.1867 99.6529 72.7927 100.416 73.0752C101.154 73.3484 101.967 73.3287 102.568 73.1112L102.16 71.9829ZM99.821 70.8199C99.5108 69.8522 99.4101 68.8756 99.423 67.7569L98.2231 67.743C98.2093 68.9442 98.3166 70.0581 98.6783 71.1862L99.821 70.8199ZM99.423 67.7569C99.4706 63.6285 101.662 59.0129 103.165 56.7582L102.167 56.0927C100.6 58.443 98.2744 63.288 98.2231 67.743L99.423 67.7569ZM103.085 56.8546C103.629 56.3235 103.562 55.6161 103.354 55.0795C103.145 54.538 102.743 54.0027 102.311 53.5609L101.453 54.3996C101.824 54.7791 102.107 55.1798 102.235 55.5123C102.366 55.8496 102.29 55.9542 102.246 55.9963L103.085 56.8546ZM102.247 53.5044C101.729 53.1062 101.116 52.8136 100.555 52.7322C100.274 52.6914 99.9615 52.6973 99.6734 52.814C99.3643 52.9393 99.1172 53.1804 98.9978 53.5253L100.132 53.9178C100.132 53.9161 100.12 53.9279 100.124 53.9262C100.149 53.916 100.229 53.8974 100.382 53.9197C100.69 53.9643 101.115 54.1477 101.516 54.4561L102.247 53.5044ZM99.1048 53.3363C97.9821 54.6766 96.9147 56.7973 96.1112 58.9765C95.3064 61.1591 94.7373 63.4793 94.656 65.2451L95.8547 65.3003C95.9282 63.7037 96.4552 61.5121 97.2371 59.3917C98.0202 57.2679 99.0301 55.2943 100.025 54.1068L99.1048 53.3363ZM94.6572 65.2259C94.515 67.0435 94.7363 68.8687 95.3252 70.5796L96.4599 70.1891C95.9263 68.6389 95.7237 66.9789 95.8535 65.3195L94.6572 65.2259ZM95.3212 70.5675C95.7904 72.0312 96.754 74.0348 98.7426 75.436L99.4338 74.455C97.7401 73.2616 96.8905 71.532 96.4639 70.2012L95.3212 70.5675ZM98.7948 75.4689C100.129 76.2164 101.498 76.6174 102.665 76.6308L102.679 75.4309C101.758 75.4203 100.584 75.0959 99.3816 74.4221L98.7948 75.4689ZM102.665 76.6308C104.745 76.6548 106.416 75.6274 107.711 74.1949C108.999 72.7691 109.951 70.9054 110.623 69.1365L109.501 68.7105C108.857 70.4067 107.97 72.1181 106.82 73.3903C105.677 74.6559 104.311 75.4497 102.679 75.4309L102.665 76.6308ZM109.559 69.2506C110.753 71.0872 112.43 72.6172 114.171 73.6648C115.899 74.7051 117.758 75.3086 119.32 75.1965L119.235 73.9996C118.011 74.0874 116.402 73.6069 114.789 72.6366C113.189 71.6735 111.651 70.2663 110.565 68.5965L109.559 69.2506ZM119.301 75.1976C121.913 75.0971 123.711 73.38 124.833 71.3337C125.953 69.2899 126.464 66.818 126.485 64.9364L125.285 64.9226C125.266 66.6368 124.793 68.9099 123.781 70.7568C122.77 72.6012 121.284 73.9204 119.254 73.9985L119.301 75.1976ZM125.709 65.5032C127.713 66.1177 129.623 66.5007 131.783 66.5256L131.797 65.3257C129.781 65.3024 127.988 64.9468 126.061 64.3559L125.709 65.5032ZM131.783 66.5256C135.373 66.5669 139.078 65.6516 142.777 63.6781L142.213 62.6194C138.675 64.5069 135.167 65.3645 131.797 65.3257L131.783 66.5256ZM142.783 63.6751C143.306 63.3888 143.852 62.969 144.322 62.5245C144.79 62.0828 145.217 61.5844 145.479 61.1254C145.608 60.9001 145.721 60.6413 145.754 60.3773C145.788 60.0979 145.733 59.7425 145.429 59.4881C145.162 59.2637 144.815 59.2209 144.518 59.2326C144.204 59.2449 143.83 59.3223 143.398 59.4557L143.752 60.6023C144.135 60.4841 144.397 60.4383 144.565 60.4317C144.748 60.4245 144.729 60.4669 144.659 60.408C144.553 60.319 144.565 60.2091 144.563 60.2311C144.558 60.2684 144.53 60.3669 144.437 60.5306C144.255 60.8495 143.918 61.2558 143.498 61.6523C143.082 62.0458 142.618 62.3975 142.207 62.6225L142.783 63.6751ZM143.353 59.4716C139.449 61.0269 135.69 61.7743 132.419 61.7366L132.405 62.9365C135.861 62.9763 139.776 62.188 143.797 60.5864L143.353 59.4716ZM132.419 61.7366C129.934 61.708 127.717 61.2299 125.975 60.3336L125.426 61.4007C127.374 62.403 129.786 62.9063 132.405 62.9365L132.419 61.7366ZM126.295 60.9484C126.446 59.8437 126.025 58.3817 125.279 57.3568C124.9 56.8361 124.399 56.3759 123.784 56.1516C123.144 55.9186 122.44 55.9631 121.739 56.3579L122.328 57.4033C122.737 57.1728 123.077 57.1714 123.373 57.2791C123.692 57.3955 124.017 57.6625 124.309 58.0632C124.904 58.8808 125.208 60.0373 125.106 60.7859L126.295 60.9484ZM121.695 56.3852C120.942 56.8995 120.476 57.7404 120.412 58.7901C120.349 59.8261 120.676 61.0484 121.454 62.3995L122.494 61.801C121.793 60.583 121.565 59.5948 121.61 58.8628C121.653 58.1446 121.956 57.6604 122.372 57.3761L121.695 56.3852ZM157.579 77.3595L157.603 77.959L157.607 77.9588L157.579 77.3595ZM176.402 64.6995L175.869 64.425L175.865 64.4324L176.402 64.6995ZM175.858 61.561L175.43 61.1409L175.429 61.1418L175.858 61.561ZM143.412 68.4957L143.419 67.8957L142.717 67.8876L142.818 68.5824L143.412 68.4957ZM154.042 62.1217L154.596 62.354L154.601 62.341L154.042 62.1217ZM148.438 55.2127L148.444 54.6127L148.432 54.6126L148.42 54.613L148.438 55.2127ZM139.694 69.0329L140.267 68.8553L140.265 68.8497L139.694 69.0329ZM150.248 59.1778L149.819 59.5972L149.819 59.5972L150.248 59.1778ZM143.328 65.7105L142.729 65.7276L142.754 66.6176L143.569 66.26L143.328 65.7105ZM157.607 77.9588C165.859 77.5758 173.529 71.8273 176.939 64.9665L175.865 64.4324C172.624 70.952 165.317 76.3997 157.551 76.7601L157.607 77.9588ZM176.936 64.974C177.36 64.1495 177.714 63.3535 177.962 62.6629C178.204 61.9924 178.37 61.3578 178.366 60.8819C178.364 60.6587 178.325 60.3298 178.092 60.0818C177.808 59.7798 177.428 59.7805 177.152 59.8586C176.891 59.9327 176.624 60.0952 176.361 60.296C176.089 60.5037 175.779 60.7848 175.43 61.1409L176.287 61.9811C176.612 61.649 176.878 61.411 177.089 61.25C177.309 61.082 177.434 61.0261 177.479 61.0131C177.511 61.0042 177.354 61.0491 177.218 60.9037C177.132 60.8124 177.164 60.7526 177.166 60.892C177.168 61.1413 177.067 61.6056 176.833 62.2565C176.606 62.8873 176.275 63.635 175.869 64.425L176.936 64.974ZM175.429 61.1418C170.478 66.2102 162.433 74.0312 151.818 73.9089L151.805 75.1088C162.997 75.2378 171.377 67.0069 176.287 61.9803L175.429 61.1418ZM151.818 73.9089C149.962 73.8875 148.067 73.0104 146.581 71.8412C145.843 71.2602 145.224 70.6204 144.774 70.0059C144.317 69.3817 144.067 68.8252 144.006 68.4089L142.818 68.5824C142.919 69.2701 143.291 70.0114 143.806 70.7143C144.327 71.4269 145.026 72.1437 145.839 72.7842C147.458 74.0578 149.602 75.0834 151.805 75.1088L151.818 73.9089ZM143.405 69.0956C145.561 69.1205 147.937 68.4125 149.97 67.2303C152 66.05 153.755 64.3575 154.596 62.3539L153.489 61.8895C152.779 63.5804 151.249 65.0982 149.367 66.193C147.487 67.2859 145.323 67.9177 143.419 67.8957L143.405 69.0956ZM154.601 62.341C155.358 60.4125 154.761 58.466 153.537 57.0366C152.318 55.6128 150.429 54.6356 148.444 54.6127L148.431 55.8127C150.042 55.8312 151.613 56.634 152.626 57.8171C153.634 58.9946 154.041 60.4819 153.484 61.9025L154.601 62.341ZM148.42 54.613C142.318 54.7916 138.614 60.3336 138.553 65.6555L139.753 65.6693C139.809 60.7839 143.185 55.9668 148.455 55.8124L148.42 54.613ZM138.553 65.6555C138.538 66.8928 138.771 68.1203 139.122 69.216L140.265 68.8497C139.945 67.8496 139.74 66.7519 139.753 65.6693L138.553 65.6555ZM139.121 69.2105C140.312 73.0534 143.252 75.3131 146.702 76.5678C150.141 77.8182 154.14 78.0951 157.603 77.959L157.555 76.7599C154.17 76.893 150.346 76.6158 147.112 75.4401C143.891 74.2688 141.313 72.2306 140.267 68.8553L139.121 69.2105ZM149.819 59.5972C149.91 59.69 149.984 59.8424 149.832 60.2135C149.672 60.6039 149.297 61.1093 148.686 61.6863C147.474 62.8297 145.493 64.1061 143.087 65.1611L143.569 66.26C146.061 65.1672 148.17 63.8226 149.509 62.5592C150.173 61.9328 150.689 61.2884 150.943 60.6685C151.205 60.0293 151.217 59.311 150.677 58.7585L149.819 59.5972ZM143.928 65.6935C143.911 65.108 144.137 64.2853 144.576 63.3814C145.008 62.491 145.618 61.5822 146.298 60.8365C146.985 60.0821 147.703 59.5407 148.339 59.3171C148.65 59.2076 148.92 59.1816 149.151 59.2228C149.375 59.2628 149.599 59.3723 149.819 59.5972L150.677 58.7585C150.295 58.3673 149.849 58.1284 149.361 58.0414C148.88 57.9557 148.397 58.0243 147.94 58.1851C147.04 58.5021 146.162 59.2039 145.411 60.028C144.651 60.8609 143.978 61.866 143.496 62.8574C143.022 63.8353 142.704 64.8625 142.729 65.7276L143.928 65.6935ZM197.411 72.9461L198.011 72.9131L196.863 72.7019L197.411 72.9461ZM203.681 102.716L203.229 103.11L203.232 103.115L203.681 102.716ZM206.674 104.723L206.617 105.32L206.97 105.354L207.169 105.061L206.674 104.723ZM206.699 102.519L206.202 102.854L206.208 102.864L206.215 102.873L206.699 102.519ZM207.603 3.92291L208.185 4.07179L208.19 4.05025L208.194 4.02836L207.603 3.92291ZM205.649 2.39229L205.588 2.98916L205.615 2.99194L205.642 2.99225L205.649 2.39229ZM202.852 3.52014L203.43 3.68048L203.437 3.65333L203.442 3.62559L202.852 3.52014ZM197.144 65.9825L197.653 66.3004L197.742 66.1577L197.744 65.9894L197.144 65.9825ZM183.187 79.1626L182.843 79.6544L182.863 79.6686L182.885 79.681L183.187 79.1626ZM184.753 3.65964L185.323 3.8469L185.352 3.75904L185.353 3.66656L184.753 3.65964ZM182.689 1.54773L182.964 1.0142L182.941 1.00278L182.918 0.993245L182.689 1.54773ZM180.713 1.87298L181.283 2.0609L181.296 2.02041L181.304 1.97843L180.713 1.87298ZM178.433 78.9918L178.94 78.6717L178.921 78.6422L178.899 78.6151L178.433 78.9918ZM186.265 83.8584C189.267 83.893 191.638 82.4734 193.521 80.4382C195.395 78.4139 196.82 75.7478 197.96 73.1903L196.863 72.7019C195.74 75.2226 194.379 77.7448 192.641 79.6231C190.912 81.4906 188.845 82.688 186.279 82.6585L186.265 83.8584ZM196.812 72.9791C197.101 78.2195 197.726 84.6044 198.755 90.2309C199.269 93.0437 199.887 95.6793 200.619 97.893C201.345 100.092 202.204 101.934 203.229 103.11L204.133 102.322C203.269 101.33 202.471 99.6735 201.758 97.5164C201.05 95.374 200.444 92.797 199.935 90.0151C198.918 84.4523 198.297 78.12 198.011 72.9131L196.812 72.9791ZM203.232 103.115C203.783 103.735 204.233 104.263 204.725 104.633C205.257 105.033 205.828 105.245 206.617 105.32L206.731 104.126C206.129 104.068 205.776 103.922 205.446 103.674C205.075 103.396 204.724 102.987 204.129 102.318L203.232 103.115ZM207.169 105.061C207.175 105.053 207.19 105.034 207.233 104.986C207.269 104.946 207.328 104.881 207.384 104.813C207.501 104.673 207.647 104.47 207.733 104.199C207.919 103.612 207.756 102.947 207.183 102.165L206.215 102.873C206.67 103.495 206.613 103.759 206.589 103.837C206.569 103.898 206.531 103.962 206.46 104.047C206.422 104.093 206.387 104.131 206.337 104.188C206.294 104.236 206.232 104.306 206.179 104.384L207.169 105.061ZM207.197 102.184C206.438 101.057 205.714 98.9217 205.067 96.1194C204.426 93.3435 203.876 89.9944 203.432 86.5057C202.544 79.5259 202.082 72.0375 202.134 67.5481L200.934 67.5343C200.882 72.0923 201.349 79.6377 202.242 86.6572C202.689 90.1684 203.244 93.5604 203.898 96.3895C204.545 99.1923 205.307 101.526 206.202 102.854L207.197 102.184ZM202.134 67.5481L202.194 62.3285L200.994 62.3146L200.934 67.5343L202.134 67.5481ZM202.194 62.3285C202.525 33.5904 204.556 18.2364 208.185 4.07179L207.022 3.77403C203.362 18.0634 201.326 33.5206 200.994 62.3146L202.194 62.3285ZM208.194 4.02836C208.299 3.44014 208.05 2.86158 207.593 2.45493C207.134 2.04647 206.466 1.80167 205.656 1.79233L205.642 2.99225C206.224 2.99895 206.594 3.17214 206.796 3.35133C206.999 3.53233 207.032 3.71106 207.013 3.81746L208.194 4.02836ZM205.71 1.79542C204.973 1.71982 204.207 1.84343 203.594 2.09026C203.288 2.21395 202.998 2.37737 202.765 2.5824C202.536 2.78418 202.324 3.06192 202.261 3.41469L203.442 3.62559C203.441 3.63105 203.45 3.57782 203.559 3.48259C203.663 3.3906 203.825 3.29097 204.043 3.20319C204.48 3.02708 205.05 2.93407 205.588 2.98916L205.71 1.79542ZM202.273 3.3598C198.499 16.9709 196.835 40.6856 196.613 59.944L197.813 59.9578C198.035 40.7068 199.7 17.1287 203.43 3.68048L202.273 3.3598ZM196.613 59.944L196.544 65.9756L197.744 65.9894L197.813 59.9578L196.613 59.944ZM196.635 65.6647C194.973 68.3246 192.575 72.1978 190.069 75.0992C188.813 76.5531 187.566 77.7198 186.406 78.3742C185.253 79.0248 184.297 79.1153 183.489 78.6443L182.885 79.681C184.209 80.4526 185.649 80.1792 186.996 79.4193C188.336 78.6633 189.691 77.3731 190.977 75.8836C193.556 72.8981 196.005 68.9387 197.653 66.3004L196.635 65.6647ZM183.531 78.6708C183.057 78.3398 182.583 77.6142 182.162 76.4106C181.749 75.2284 181.419 73.6773 181.168 71.8163C180.666 68.097 180.49 63.2271 180.553 57.7869L179.353 57.773C179.29 63.2361 179.465 68.1729 179.979 71.9768C180.235 73.8774 180.579 75.517 181.029 76.8063C181.472 78.0742 182.051 79.1008 182.843 79.6544L183.531 78.6708ZM180.553 57.7869C180.678 46.9678 181.695 34.0071 182.773 23.4703C183.312 18.2035 183.865 13.5467 184.328 10.0714C184.56 8.33338 184.769 6.89339 184.942 5.82153C185.119 4.72614 185.251 4.06659 185.323 3.8469L184.183 3.47239C184.075 3.80166 183.929 4.56725 183.757 5.6303C183.582 6.71689 183.371 8.16864 183.139 9.91278C182.674 13.4017 182.119 18.0708 181.579 23.3482C180.5 33.9 179.478 46.9015 179.353 57.773L180.553 57.7869ZM185.353 3.66656C185.356 3.37116 185.245 3.09482 185.115 2.8688C184.98 2.63486 184.796 2.40496 184.585 2.18935C184.163 1.75793 183.592 1.3377 182.964 1.0142L182.415 2.08126C182.939 2.35107 183.403 2.69683 183.727 3.02804C183.889 3.19375 184.004 3.34434 184.076 3.46805C184.151 3.59967 184.153 3.65815 184.153 3.65273L185.353 3.66656ZM182.918 0.993245C182.311 0.742113 181.72 0.597272 181.219 0.6786C180.953 0.721646 180.695 0.831319 180.489 1.03666C180.283 1.24139 180.17 1.49951 180.122 1.76753L181.304 1.97843C181.311 1.93794 181.32 1.91397 181.326 1.90163C181.329 1.89549 181.332 1.89186 181.333 1.89003C181.334 1.88824 181.335 1.88751 181.335 1.88732C181.335 1.88715 181.336 1.88671 181.337 1.88593C181.338 1.88512 181.341 1.88341 181.345 1.88115C181.355 1.87662 181.375 1.8689 181.411 1.86315C181.577 1.83617 181.913 1.87601 182.46 2.10221L182.918 0.993245ZM180.143 1.68506C179.733 2.92853 179.232 5.63749 178.708 9.2735C178.18 12.9305 177.622 17.5769 177.105 22.7323C176.072 33.0416 175.203 45.4051 175.081 55.9837L176.281 55.9975C176.403 45.4655 177.268 33.1393 178.299 22.852C178.815 17.7091 179.371 13.0805 179.896 9.44482C180.423 5.78808 180.912 3.18659 181.283 2.0609L180.143 1.68506ZM175.081 55.9837C175.017 61.562 175.162 66.6656 175.597 70.7211C175.815 72.7483 176.107 74.5275 176.487 75.9795C176.864 77.4172 177.341 78.595 177.966 79.3686L178.899 78.6151C178.437 78.042 178.012 77.0633 177.648 75.6756C177.289 74.3024 177.005 72.5874 176.79 70.5929C176.362 66.6049 176.217 61.5545 176.281 55.9975L175.081 55.9837ZM177.925 79.312C179.269 81.4422 182.318 83.8129 186.265 83.8584L186.279 82.6585C182.802 82.6184 180.103 80.5146 178.94 78.6717L177.925 79.312ZM230.527 78.1999L230.551 78.7995L230.555 78.7993L230.527 78.1999ZM249.35 65.54L248.817 65.2654L248.813 65.2729L249.35 65.54ZM248.807 62.4015L248.378 61.9814L248.377 61.9822L248.807 62.4015ZM216.36 69.3361L216.367 68.7362L215.665 68.7281L215.767 69.4229L216.36 69.3361ZM226.991 62.9622L227.544 63.1945L227.549 63.1814L226.991 62.9622ZM221.386 56.0532L221.393 55.4532L221.381 55.4531L221.368 55.4534L221.386 56.0532ZM212.642 69.8733L213.215 69.6957L213.213 69.6902L212.642 69.8733ZM223.196 60.0183L222.767 60.4376L222.767 60.4376L223.196 60.0183ZM216.277 66.551L215.677 66.5681L215.702 67.4581L216.518 67.1005L216.277 66.551ZM230.555 78.7993C238.807 78.4162 246.478 72.6678 249.888 65.807L248.813 65.2729C245.573 71.7924 238.265 77.2401 230.499 77.6006L230.555 78.7993ZM249.884 65.8144C250.308 64.9899 250.662 64.1939 250.911 63.5034C251.152 62.8329 251.318 62.1982 251.314 61.7223C251.312 61.4992 251.273 61.1703 251.04 60.9223C250.756 60.6202 250.376 60.6209 250.101 60.699C249.839 60.7731 249.572 60.9357 249.309 61.1365C249.037 61.3442 248.727 61.6252 248.378 61.9814L249.235 62.8216C249.561 62.4895 249.826 62.2515 250.037 62.0904C250.257 61.9225 250.382 61.8666 250.428 61.8536C250.459 61.8446 250.303 61.8896 250.166 61.7442C250.08 61.6529 250.113 61.5931 250.114 61.7325C250.116 61.9817 250.016 62.446 249.781 63.0969C249.554 63.7277 249.223 64.4754 248.817 65.2655L249.884 65.8144ZM248.377 61.9822C243.426 67.0506 235.381 74.8716 224.767 74.7493L224.753 75.9493C235.945 76.0782 244.326 67.8474 249.236 62.8207L248.377 61.9822ZM224.767 74.7493C222.91 74.728 221.015 73.8509 219.53 72.6816C218.792 72.1006 218.172 71.4609 217.722 70.8463C217.266 70.2222 217.015 69.6656 216.954 69.2494L215.767 69.4229C215.867 70.1106 216.24 70.8518 216.754 71.5548C217.275 72.2674 217.974 72.9842 218.788 73.6246C220.406 74.8983 222.55 75.9239 224.753 75.9493L224.767 74.7493ZM216.354 69.9361C218.51 69.9609 220.885 69.2529 222.918 68.0708C224.948 66.8905 226.703 65.1979 227.544 63.1944L226.437 62.73C225.728 64.4208 224.197 65.9387 222.315 67.0334C220.435 68.1264 218.271 68.7581 216.367 68.7362L216.354 69.9361ZM227.549 63.1814C228.306 61.2529 227.709 59.3065 226.485 57.8771C225.266 56.4533 223.377 55.4761 221.393 55.4532L221.379 56.6531C222.99 56.6717 224.561 57.4745 225.574 58.6575C226.582 59.835 226.99 61.3224 226.432 62.7429L227.549 63.1814ZM221.368 55.4534C215.266 55.6321 211.562 61.174 211.501 66.496L212.701 66.5098C212.757 61.6244 216.133 56.8072 221.403 56.6529L221.368 55.4534ZM211.501 66.496C211.487 67.7332 211.719 68.9607 212.071 70.0565L213.213 69.6902C212.893 68.6901 212.688 67.5924 212.701 66.5098L211.501 66.496ZM212.069 70.051C213.26 73.8939 216.2 76.1536 219.651 77.4083C223.089 78.6586 227.088 78.9356 230.551 78.7995L230.504 77.6004C227.119 77.7334 223.294 77.4562 220.061 76.2805C216.84 75.1092 214.261 73.0711 213.215 69.6957L212.069 70.051ZM222.767 60.4376C222.858 60.5304 222.933 60.6829 222.781 61.0539C222.621 61.4444 222.246 61.9497 221.634 62.5268C220.422 63.6701 218.441 64.9466 216.036 66.0015L216.518 67.1005C219.009 66.0077 221.118 64.6631 222.458 63.3996C223.121 62.7733 223.637 62.1289 223.891 61.509C224.153 60.8697 224.165 60.1514 223.625 59.5989L222.767 60.4376ZM216.876 66.5339C216.86 65.9484 217.085 65.1258 217.524 64.2219C217.956 63.3314 218.566 62.4226 219.246 61.677C219.934 60.9226 220.651 60.3812 221.287 60.1576C221.598 60.0481 221.868 60.0221 222.099 60.0633C222.323 60.1033 222.547 60.2128 222.767 60.4376L223.625 59.5989C223.243 59.2078 222.797 58.9688 222.31 58.8819C221.829 58.7961 221.345 58.8648 220.888 59.0256C219.988 59.3426 219.111 60.0444 218.359 60.8685C217.6 61.7014 216.926 62.7064 216.445 63.6978C215.97 64.6758 215.652 65.703 215.677 66.5681L216.876 66.5339ZM248.202 75.9674L248.783 75.8195L248.771 75.7736L248.753 75.7301L248.202 75.9674ZM252.357 77.7554L251.764 77.6666L251.754 77.7303L251.759 77.7945L252.357 77.7554ZM253.227 72.7771L253.786 72.9942L253.789 72.9875L253.791 72.9807L253.227 72.7771ZM271.61 58.0239L272.204 58.1052L272.295 57.4452L271.629 57.4242L271.61 58.0239ZM271.182 54.8868L271.292 54.2968L271.286 54.2958L271.182 54.8868ZM253.211 64.0763L252.611 64.054L252.544 65.8707L253.679 64.4511L253.211 64.0763ZM253.379 59.554L253.979 59.5763L253.979 59.5686L253.979 59.5609L253.379 59.554ZM251.667 57.0981L251.965 56.577L251.953 56.5705L251.942 56.5646L251.667 57.0981ZM249.345 57.3033L249.94 57.3765L249.944 57.3435L249.945 57.3102L249.345 57.3033ZM247.62 76.1153C247.773 76.7177 248.194 77.2401 248.656 77.646C249.127 78.0601 249.699 78.4037 250.251 78.6352C250.786 78.8596 251.38 79.0107 251.879 78.9544C252.135 78.9255 252.43 78.8344 252.656 78.6012C252.895 78.3542 252.977 78.0331 252.956 77.7163L251.759 77.7945C251.763 77.855 251.746 77.8155 251.795 77.7658C251.829 77.7298 251.839 77.7513 251.745 77.7619C251.544 77.7846 251.175 77.7215 250.715 77.5285C250.271 77.3425 249.813 77.0652 249.448 76.7445C249.074 76.4158 248.852 76.0897 248.783 75.8195L247.62 76.1153ZM252.951 77.8442C253.207 76.1314 253.327 75.1684 253.439 74.445C253.546 73.7537 253.629 73.3975 253.786 72.9942L252.667 72.56C252.465 73.0806 252.366 73.5344 252.253 74.2616C252.146 74.9568 252.01 76.0209 251.764 77.6666L252.951 77.8442ZM253.791 72.9807C255.18 69.1323 258.239 65.4848 261.689 62.8173C265.157 60.1364 268.897 58.5386 271.591 58.6236L271.629 57.4242C268.525 57.3263 264.511 59.1195 260.955 61.868C257.383 64.6299 254.15 68.4504 252.662 72.5735L253.791 72.9807ZM271.015 57.9426L270.889 58.8692L272.078 59.0318L272.204 58.1052L271.015 57.9426ZM270.889 58.8692C270.766 59.7692 271.503 60.3962 272.321 60.4854C273.164 60.5775 274.157 60.1684 275.065 59.1549L274.171 58.3543C273.433 59.178 272.795 59.3301 272.451 59.2925C272.081 59.2521 272.074 59.0584 272.078 59.0318L270.889 58.8692ZM275.065 59.1549C275.438 58.7377 275.489 58.1946 275.39 57.7113C275.291 57.228 275.032 56.7351 274.676 56.2881C273.963 55.3913 272.773 54.5721 271.292 54.2968L271.072 55.4767C272.253 55.6961 273.193 56.3515 273.737 57.0353C274.01 57.3787 274.163 57.7026 274.215 57.9532C274.266 58.204 274.208 58.3122 274.171 58.3543L275.065 59.1549ZM271.286 54.2958C267.883 53.6987 263.967 55.1706 260.606 57.1673C257.225 59.1755 254.266 61.7975 252.742 63.7015L253.679 64.4511C255.099 62.6768 257.942 60.1453 261.218 58.199C264.515 56.2411 268.113 54.9574 271.078 55.4777L271.286 54.2958ZM253.811 64.0986L253.979 59.5763L252.779 59.5317L252.611 64.054L253.811 64.0986ZM253.979 59.5609C253.985 59.0451 253.749 58.4602 253.416 57.9563C253.073 57.4375 252.577 56.9266 251.965 56.577L251.37 57.6192C251.794 57.8615 252.159 58.2306 252.415 58.6178C252.68 59.0198 252.781 59.3669 252.779 59.5471L253.979 59.5609ZM251.942 56.5646C251.31 56.2396 250.623 56.0427 250.044 56.0746C249.753 56.0907 249.432 56.1682 249.172 56.3789C248.89 56.6068 248.749 56.9345 248.745 57.2964L249.945 57.3102C249.945 57.2662 249.952 57.2911 249.927 57.3117C249.923 57.315 249.966 57.2808 250.11 57.2728C250.402 57.2568 250.871 57.3632 251.393 57.6316L251.942 56.5646ZM248.749 57.2302C247.853 64.5318 247.451 68.9546 247.332 71.6894C247.214 74.3907 247.364 75.5384 247.651 76.2048L248.753 75.7301C248.588 75.3472 248.412 74.461 248.531 71.7417C248.648 69.0558 249.045 64.6712 249.94 57.3765L248.749 57.2302ZM303.459 75.908L303.804 76.3989L304.08 76.2052L304.058 75.8689L303.459 75.908ZM300.535 77.9625L300.19 77.4715L300.183 77.4767L300.535 77.9625ZM277.464 106.931L276.876 106.809L276.873 106.825L276.871 106.841L277.464 106.931ZM281.738 118.581L281.301 118.992L281.309 119L281.738 118.581ZM292.473 123.229L292.584 123.818L292.588 123.817L292.473 123.229ZM307 90.7978L307.598 90.8427L307.599 90.8334L307.599 90.824L307 90.7978ZM307.472 80.0145L306.875 79.9578L306.873 79.973L306.873 79.9883L307.472 80.0145ZM307.604 78.6239L307.269 78.1261L307.034 78.2846L307.007 78.5672L307.604 78.6239ZM310.995 76.3428L310.694 75.8238L310.676 75.8338L310.66 75.845L310.995 76.3428ZM328.259 68.0732L328.12 67.4895L328.107 67.4927L328.093 67.4965L328.259 68.0732ZM328.275 66.6813L327.865 67.1197L327.871 67.1251L328.275 66.6813ZM307.668 73.0563L307.368 72.5366L307.303 72.5744L307.249 72.6272L307.668 73.0563ZM307.551 73.171L306.951 73.164L306.934 74.6125L307.97 73.6001L307.551 73.171ZM307.556 72.707L308.156 72.7139L308.156 72.7036L307.556 72.707ZM306.879 60.9824L306.281 61.0298L306.29 61.1427L306.34 61.2445L306.879 60.9824ZM302.614 58.6131L303.034 59.0422L303.103 58.9742L303.148 58.8876L302.614 58.6131ZM302.612 58.8451L303.031 59.2742L303.626 58.6924L302.886 58.3116L302.612 58.8451ZM302.258 59.3051L302.857 59.3494L302.858 59.3307L302.858 59.312L302.258 59.3051ZM286.78 73.6277L286.47 74.1414L286.477 74.1452L286.78 73.6277ZM284.418 67.2201L283.82 67.1704L283.815 67.2291L283.822 67.2876L284.418 67.2201ZM285.163 62.9364L284.63 62.6619L284.593 62.7333L284.576 62.8119L285.163 62.9364ZM286.81 60.9832L286.949 61.5669L286.988 61.5575L287.026 61.5428L286.81 60.9832ZM283.601 57.582L283.767 58.1587L283.775 58.1561L283.784 58.1534L283.601 57.582ZM281.249 60.3391L281.807 60.561L281.81 60.5506L281.249 60.3391ZM281.362 70.6651L280.795 70.8604L280.799 70.8725L280.804 70.8845L281.362 70.6651ZM302.966 68.3618L303.565 68.3227L303.46 66.7227L302.489 67.9983L302.966 68.3618ZM289.382 119.713L289.272 119.123L289.257 119.126L289.243 119.129L289.382 119.713ZM284.071 117.447L283.611 117.833L283.633 117.858L283.657 117.881L284.071 117.447ZM281.729 109.3L282.317 109.421L282.318 109.412L282.32 109.404L281.729 109.3ZM300.584 83.7634L300.185 83.3157L300.185 83.3158L300.584 83.7634ZM303.28 81.3583L303.88 81.3609L303.886 80.0137L302.881 80.9106L303.28 81.3583ZM303.114 75.4171L300.19 77.4715L300.88 78.4534L303.804 76.3989L303.114 75.4171ZM300.183 77.4767C294.236 81.7875 288.889 86.838 284.792 91.9408C280.703 97.0343 277.825 102.222 276.876 106.809L278.052 107.052C278.946 102.728 281.696 97.7137 285.728 92.6921C289.752 87.6798 295.019 82.7019 300.887 78.4483L300.183 77.4767ZM276.871 106.841C276.207 111.244 278.122 115.618 281.301 118.992L282.175 118.169C279.166 114.976 277.465 110.955 278.057 107.02L276.871 106.841ZM281.309 119C282.971 120.701 284.994 122.044 286.984 122.893C288.96 123.737 290.969 124.122 292.584 123.818L292.362 122.639C291.071 122.882 289.317 122.585 287.455 121.79C285.606 121 283.716 119.746 282.167 118.161L281.309 119ZM292.588 123.817C297.965 122.77 301.431 118.05 303.681 111.958C305.941 105.843 307.049 98.162 307.598 90.8427L306.401 90.7529C305.855 98.0379 304.757 105.586 302.556 111.543C300.346 117.522 297.097 121.716 292.358 122.64L292.588 123.817ZM307.599 90.824L308.071 80.0408L306.873 79.9883L306.4 90.7715L307.599 90.824ZM308.069 80.0712L308.201 78.6806L307.007 78.5672L306.875 79.9578L308.069 80.0712ZM307.939 79.1218L311.33 76.8407L310.66 75.845L307.269 78.1261L307.939 79.1218ZM311.296 76.8619C316.207 74.0146 323.85 69.965 328.425 68.6498L328.093 67.4965C323.356 68.8583 315.592 72.9837 310.694 75.8238L311.296 76.8619ZM328.398 68.6569C328.636 68.6004 328.883 68.5303 329.083 68.4234C329.284 68.3153 329.568 68.0948 329.601 67.6964C329.629 67.3602 329.454 67.0806 329.317 66.9009C329.163 66.6991 328.944 66.479 328.679 66.2375L327.871 67.1251C328.122 67.3536 328.276 67.5148 328.362 67.6275C328.382 67.6539 328.396 67.6745 328.405 67.6897C328.41 67.6972 328.413 67.703 328.415 67.707C328.417 67.711 328.418 67.7129 328.418 67.7128C328.418 67.7128 328.417 67.7103 328.415 67.7056C328.414 67.7008 328.412 67.6934 328.41 67.6836C328.406 67.6638 328.402 67.634 328.406 67.5971C328.412 67.5136 328.447 67.4435 328.486 67.398C328.517 67.3608 328.538 67.3538 328.516 67.3657C328.464 67.3936 328.348 67.4353 328.12 67.4895L328.398 68.6569ZM328.685 66.2429C328.205 65.7943 327.516 65.6174 326.798 65.5735C326.065 65.5288 325.203 65.6167 324.274 65.7912C322.414 66.1407 320.178 66.8582 317.952 67.7002C313.498 69.3847 308.977 71.6085 307.368 72.5366L307.968 73.576C309.513 72.6843 313.975 70.4873 318.376 68.8226C320.578 67.99 322.738 67.3008 324.496 66.9706C325.376 66.8052 326.13 66.735 326.725 66.7713C327.333 66.8084 327.686 66.9516 327.865 67.1197L328.685 66.2429ZM307.249 72.6272L307.132 72.7418L307.97 73.6001L308.088 73.4854L307.249 72.6272ZM308.151 73.1779L308.156 72.7139L306.956 72.7001L306.951 73.164L308.151 73.1779ZM308.156 72.7036C308.137 69.3248 307.995 66.4386 307.844 64.3652C307.769 63.3288 307.691 62.4933 307.624 61.8995C307.59 61.6031 307.559 61.3631 307.532 61.1867C307.519 61.0991 307.506 61.0217 307.493 60.9585C307.486 60.9235 307.465 60.8147 307.419 60.7203L306.34 61.2445C306.308 61.1793 306.304 61.135 306.317 61.1987C306.325 61.2342 306.334 61.2896 306.346 61.3677C306.37 61.5227 306.399 61.7456 306.431 62.0337C306.496 62.6086 306.573 63.428 306.647 64.4525C306.797 66.5009 306.937 69.3603 306.956 72.7104L308.156 72.7036ZM307.477 60.935C307.407 60.0438 306.729 59.234 306.042 58.6865C305.346 58.1326 304.439 57.6861 303.669 57.6772L303.655 58.8771C304.045 58.8816 304.696 59.1491 305.294 59.6252C305.9 60.1077 306.251 60.6438 306.281 61.0298L307.477 60.935ZM303.669 57.6772C303.394 57.674 303.099 57.7044 302.839 57.7812C302.614 57.8475 302.258 57.9938 302.081 58.3386L303.148 58.8876C303.114 58.9538 303.074 58.9754 303.084 58.9697C303.091 58.9649 303.12 58.9494 303.179 58.9321C303.297 58.8973 303.467 58.875 303.655 58.8771L303.669 57.6772ZM302.195 58.184C302.199 58.1805 302.202 58.1784 302.172 58.2013C302.162 58.2084 302.131 58.2314 302.1 58.2592C302.073 58.2832 302.003 58.3486 301.949 58.4531C301.883 58.581 301.852 58.7505 301.907 58.9279C301.954 59.0773 302.043 59.1711 302.09 59.2142C302.177 59.2953 302.282 59.35 302.337 59.3786L302.886 58.3116C302.826 58.2808 302.859 58.2912 302.907 58.3356C302.934 58.3604 303.012 58.4378 303.053 58.5717C303.103 58.7336 303.074 58.8887 303.016 59.0021C302.97 59.0921 302.912 59.1432 302.902 59.1521C302.888 59.1646 302.878 59.1715 302.892 59.1608C302.909 59.148 302.971 59.1031 303.034 59.0422L302.195 58.184ZM302.192 58.416C302.194 58.4138 302.192 58.4162 302.181 58.4254C302.17 58.435 302.157 58.445 302.135 58.4621C302.098 58.4912 302.035 58.5413 301.973 58.602C301.845 58.7269 301.662 58.9558 301.658 59.2982L302.858 59.312C302.858 59.3596 302.844 59.4029 302.827 59.4344C302.813 59.461 302.801 59.4698 302.811 59.4602C302.823 59.4492 302.84 59.4349 302.879 59.4034C302.896 59.3901 302.921 59.3706 302.945 59.3512C302.969 59.3313 302.999 59.305 303.031 59.2742L302.192 58.416ZM301.66 59.2607C301.633 59.6206 301.475 60.1611 301.165 60.858C300.86 61.543 300.428 62.3365 299.896 63.1893C298.83 64.8948 297.381 66.8051 295.792 68.5136C294.198 70.2272 292.489 71.7082 290.911 72.5849C289.304 73.477 288.008 73.6525 287.084 73.1102L286.477 74.1452C287.972 75.0229 289.787 74.5817 291.493 73.634C293.227 72.671 295.034 71.0894 296.67 69.331C298.311 67.5674 299.807 65.5964 300.913 63.825C301.467 62.9393 301.928 62.0954 302.261 61.3458C302.589 60.6081 302.815 59.9168 302.857 59.3494L301.66 59.2607ZM287.09 73.1141C286.318 72.6476 285.833 71.706 285.524 70.5256C285.219 69.3574 285.123 68.1119 285.014 67.1525L283.822 67.2876C283.924 68.1868 284.03 69.5537 284.363 70.8291C284.693 72.0923 285.284 73.4251 286.47 74.1413L287.09 73.1141ZM285.016 67.2697C285.147 65.6951 285.5 64.2395 285.75 63.0608L284.576 62.8119C284.336 63.9477 283.959 65.4999 283.82 67.1704L285.016 67.2697ZM285.697 63.2109C285.981 62.6586 286.253 62.2404 286.493 61.9562C286.749 61.6528 286.908 61.5766 286.949 61.5669L286.671 60.3995C286.247 60.5005 285.879 60.8242 285.577 61.1814C285.258 61.5579 284.939 62.0609 284.63 62.6619L285.697 63.2109ZM287.026 61.5428C287.663 61.2968 287.862 60.6478 287.808 60.0897C287.754 59.5179 287.448 58.9003 286.916 58.356L286.058 59.1947C286.444 59.589 286.591 59.9627 286.614 60.2038C286.625 60.324 286.605 60.3914 286.593 60.417C286.587 60.4288 286.584 60.4309 286.586 60.4286C286.587 60.4276 286.589 60.4263 286.591 60.4252C286.592 60.424 286.594 60.4236 286.594 60.4236L287.026 61.5428ZM286.916 58.356C286.4 57.8273 285.783 57.4261 285.186 57.186C284.611 56.9547 283.961 56.8366 283.418 57.0106L283.784 58.1534C283.94 58.1034 284.274 58.1127 284.738 58.2994C285.181 58.4773 285.658 58.7848 286.058 59.1947L286.916 58.356ZM283.435 57.0054C281.973 57.4257 281.174 58.8357 280.688 60.1276L281.81 60.5506C282.281 59.3013 282.901 58.4076 283.767 58.1587L283.435 57.0054ZM280.692 60.1173C280.061 61.7021 279.802 63.3994 279.782 65.0785L280.982 65.0923C281 63.5237 281.242 61.9785 281.806 60.5609L280.692 60.1173ZM279.782 65.0785C279.759 67.1386 280.218 69.1861 280.795 70.8604L281.929 70.4698C281.383 68.8829 280.961 66.976 280.982 65.0923L279.782 65.0785ZM280.804 70.8845C282.34 74.7961 286.21 77.9334 290.326 77.9808L290.34 76.7809C286.801 76.7401 283.314 73.9923 281.92 70.4457L280.804 70.8845ZM290.326 77.9808C292.448 78.0053 294.888 76.7667 297.165 75.0487C299.467 73.3119 301.707 71.0056 303.443 68.7254L302.489 67.9983C300.809 70.203 298.646 72.4283 296.443 74.0908C294.214 75.7721 292.046 76.8006 290.34 76.7809L290.326 77.9808ZM302.367 68.4009L302.86 75.9471L304.058 75.8689L303.565 68.3227L302.367 68.4009ZM289.243 119.129C288.723 119.253 287.966 119.148 287.085 118.77C286.218 118.398 285.299 117.79 284.486 117.014L283.657 117.881C284.565 118.748 285.602 119.439 286.612 119.872C287.606 120.299 288.644 120.505 289.52 120.296L289.243 119.129ZM284.531 117.062C283.21 115.485 281.633 112.749 282.317 109.421L281.141 109.179C280.351 113.026 282.186 116.13 283.611 117.833L284.531 117.062ZM282.32 109.404C282.978 105.666 285.25 101.493 288.584 97.1673C291.91 92.8517 296.253 88.4342 300.984 84.211L300.185 83.3158C295.422 87.5678 291.02 92.0401 287.633 96.4348C284.254 100.819 281.846 105.177 281.138 109.196L282.32 109.404ZM300.984 84.2111L303.68 81.806L302.881 80.9106L300.185 83.3157L300.984 84.2111ZM302.68 81.3557C302.645 89.4253 301.386 98.542 299.046 105.828C297.876 109.472 296.445 112.629 294.782 114.964C293.115 117.306 291.265 118.753 289.272 119.123L289.491 120.303C291.916 119.853 294.004 118.126 295.759 115.66C297.52 113.188 298.998 109.904 300.189 106.195C302.572 98.7729 303.845 89.5316 303.88 81.3609L302.68 81.3557ZM334.642 76.7313L334.164 77.0942L334.164 77.0942L334.642 76.7313ZM339.21 72.9557L339.688 72.5928L339.688 72.5928L339.21 72.9557ZM335.498 72.9129L335.124 72.4442L335.124 72.4442L335.498 72.9129ZM334.164 77.0942C335.241 78.5124 337.283 78.3982 338.728 77.2428L337.979 76.3053C336.849 77.2084 335.643 77.0568 335.12 76.3684L334.164 77.0942ZM338.728 77.2428C340.185 76.0785 340.745 73.9844 339.688 72.5928L338.732 73.3186C339.275 74.0335 339.098 75.4112 337.979 76.3053L338.728 77.2428ZM339.688 72.5928C338.611 71.1746 336.569 71.2888 335.124 72.4442L335.873 73.3816C337.003 72.4786 338.209 72.6302 338.732 73.3186L339.688 72.5928ZM335.124 72.4442C333.667 73.6085 333.107 75.7026 334.164 77.0942L335.12 76.3684C334.577 75.6535 334.754 74.2758 335.873 73.3816L335.124 72.4442Z" fill="#FFD800"/>
</g>
<defs>
<filter id="filter0_d" x="0.15625" y="0.656006" width="344.078" height="136.443" filterUnits="userSpaceOnUse" color-interpolation-filters="sRGB">
<feFlood flood-opacity="0" result="BackgroundImageFix"/>
<feColorMatrix in="SourceAlpha" type="matrix" values="0 0 0 0 0 0 0 0 0 0 0 0 0 0 0 0 0 0 127 0"/>
<feOffset dy="4"/>
<feGaussianBlur stdDeviation="2"/>
<feColorMatrix type="matrix" values="0 0 0 0 0 0 0 0 0 0 0 0 0 0 0 0 0 0 0.25 0"/>
<feBlend mode="normal" in2="BackgroundImageFix" result="effect1_dropShadow"/>
<feBlend mode="normal" in="SourceGraphic" in2="effect1_dropShadow" result="shape"/>
</filter>
</defs>
</svg>
