<svg id="Layer_1" data-name="Layer 1" xmlns="http://www.w3.org/2000/svg" viewBox="0 0 38 37"><defs><style>.cls-1{fill:#e2a08a;}</style></defs><path class="cls-1" d="M.86,18.54A18.48,18.48,0,0,0,12.75,35.8a18.08,18.08,0,0,1,0-5.49L15,21.17a6.61,6.61,0,0,1-.55-2.72c0-2.56,1.48-4.47,3.32-4.47a2.31,2.31,0,0,1,2.33,2.59c0,1.58-1,3.94-1.52,6.12A2.67,2.67,0,0,0,21.25,26C24.51,26,27,22.57,27,17.6c0-4.41-3.17-7.48-7.68-7.48a8,8,0,0,0-8.3,8,7.16,7.16,0,0,0,1.37,4.2.55.55,0,0,1,.13.25.66.66,0,0,1,0,.28L12,24.9c-.09.34-.27.41-.62.25C9.12,24.08,7.69,20.72,7.69,18c0-5.8,4.21-11.13,12.14-11.13,6.38,0,11.33,4.55,11.33,10.62,0,6.33-4,11.43-9.53,11.43a4.93,4.93,0,0,1-4.22-2.11s-.92,3.51-1.14,4.37a21.11,21.11,0,0,1-2.38,5,18.46,18.46,0,1,0-13-17.65Z"/></svg>