<svg width="38" height="37" viewBox="0 0 38 37" fill="none" xmlns="http://www.w3.org/2000/svg">
<path d="M0.861328 18.5374C0.861328 26.4193 5.80152 33.1488 12.7541 35.7966C12.5849 34.355 12.4048 31.978 12.7926 30.3102C13.1264 28.8763 14.948 21.1745 14.948 21.1745C14.948 21.1745 14.3988 20.0744 14.3988 18.4451C14.3988 15.8912 15.8788 13.9834 17.7235 13.9834C19.2928 13.9834 20.0498 15.1604 20.0498 16.5712C20.0498 18.1482 19.0451 20.5052 18.5266 22.6914C18.0943 24.5207 19.4451 26.0131 21.2483 26.0131C24.5145 26.0131 27.0269 22.5684 27.0269 17.5959C27.0269 13.1942 23.8637 10.1187 19.3482 10.1187C14.1203 10.1187 11.0509 14.0403 11.0509 18.0943C11.0509 19.6744 11.6587 21.3668 12.4187 22.2883C12.4835 22.358 12.5293 22.4431 12.5516 22.5355C12.574 22.6279 12.5722 22.7245 12.5464 22.8161C12.4064 23.3976 12.0956 24.6454 12.0356 24.9008C11.9541 25.2362 11.7694 25.3085 11.4202 25.1454C9.12472 24.0777 7.69082 20.7221 7.69082 18.0266C7.69082 12.228 11.9017 6.90469 19.8328 6.90469C26.2084 6.90469 31.164 11.4479 31.164 17.5189C31.164 23.853 27.1716 28.9517 21.6267 28.9517C19.7636 28.9517 18.0143 27.9824 17.4143 26.8393C17.4143 26.8393 16.4927 30.3502 16.2696 31.2087C15.8357 32.8764 14.6326 34.9873 13.8864 36.1858C15.6065 36.7151 17.4312 36.9997 19.3236 36.9997C29.5193 36.9997 37.7858 28.7332 37.7858 18.5374C37.7858 8.34166 29.5193 0.0751953 19.3236 0.0751953C9.1278 0.0751953 0.861328 8.34166 0.861328 18.5374Z" fill="black"/>
</svg>
