<svg id="Layer_1" data-name="Layer 1" xmlns="http://www.w3.org/2000/svg" width="373mm" height="210mm" viewBox="0 0 1057.32 595.28">
  <defs>
    <style>
      .cls-1 {
        fill: none;
        stroke: #ffd800;
        stroke-miterlimit: 10;
        stroke-width: 3px;
      }
    </style>
  </defs>
  <path class="cls-1" d="M-12.5,2.5c38.42,13.83,65.78,15.87,84,15,31.57-1.54,39.72-12,71-12,31.83,0,38.94,10.77,71,10.42,28.85-.31,33-9.14,63-9.44,28.31-.29,32.83,7.46,64,7.81,30,.34,33.84-6.74,65-6.84,33.84-.1,39.81,8.2,71,7.17,26.38-.88,30.76-7.09,55-6.51,22.34.53,24.52,5.94,45,6.18,26.74.33,32.43-8.76,59-9.11,28.37-.38,34.76,9.8,64,9.76,28.25,0,33.81-9.51,62-9.44,28,.08,32.77,9.46,61,9.77,29.57.32,35.09-9.83,67-10.42,32.46-.61,38.51,9.25,73,9.12,33.3-.13,44.7-9.45,74.53-8.14a118.56,118.56,0,0,1,40,8.46"/>
  <path class="cls-1" d="M-9,19.92A121,121,0,0,0,43,33c31,.81,42.33-10,79-10.42,35.78-.38,43,9.76,77,8.79,33.14-.95,36.53-10.88,71-11.72,28.89-.71,33.6,6.09,66,5.86,33.51-.24,37.19-7.58,68-7.49,35,.1,42,9.6,73,8.46,27-1,32.64-8.63,56-7.81,21.39.75,23.35,7.39,43,7.81,25.3.55,32.17-10.24,60-10.74,25.18-.46,29.81,8.19,59,8.79,29.36.6,35.34-7.93,66-7.81,31.42.11,36.73,9.11,66,8.79,30.3-.34,34.8-10.09,65-10.42,29.81-.33,34.75,9.06,66,9.11,30.91.06,41.72-9.1,71-8.14a123.42,123.42,0,0,1,39,7.49"/>
  <path class="cls-1" d="M-12.15,41C.75,44.63,21,49.1,44.35,48.41c32.48-1,40.37-11,71.25-11.57,32.81-.59,39.84,10.49,72.7,10.23C224,46.79,232,33.58,266.43,33.82c29.69.21,34.31,10.13,64.7,10.29,33.06.18,41.32-11.48,73.29-10.94,29,.49,34.09,10.25,61.68,10,27.82-.27,35.21-10.31,59.38-9.54,23.58.75,25.89,10.61,48.77,11.38,26.89.91,37.59-12.23,67.23-11.87,24.5.29,28.14,9.4,53.65,9.72,26.76.33,34.34-9.54,62.41-9.24,22,.24,23,6.39,47.53,7.81,32,1.86,42.12-7.94,79.5-7.73,33,.2,37.76,7.89,67.48,7,31.19-.91,38.81-9.76,63.38-9.57,13.76.11,32.79,3.06,55.07,15.9"/>
  <path class="cls-1" d="M-7,56.72a189.14,189.14,0,0,0,50,5.21c32.55-1.26,39.13-11.59,68-12.38,32.18-.87,40.57,11.51,75,11.4,34.2-.11,40.92-12.37,75-12.37,33.87,0,43.08,12.11,74,11.07,28.35-1,31.64-11.52,59-12,29.18-.57,38.15,11.19,68,10.75,28-.42,33.86-11,60-10.75,26.78.24,32.75,11.43,58,11.4,27.27,0,35.59-13.12,61-12.7,23.49.38,27.41,11.74,52,12.37,25.71.66,35.72-11.39,62-10.74,22.82.56,24.27,9.86,49,11.39,30,1.87,42.66-11,79-10.74,32.84.19,39.7,10.75,71,10.09,29.22-.62,36.55-10.11,62-10.09,13.29,0,32.54,2.6,56,15.3"/>
  <path class="cls-1" d="M-6,69.42a157.46,157.46,0,0,0,39,5.86c34.22.92,46-9.25,81-9.44,33.58-.19,38.89,9.06,72,8.46,32.67-.58,36.46-9.74,67-10.09,35.84-.41,45.9,12,79,11.07,31.19-.9,37-12.37,65-12.05,27.67.32,33.47,11.68,60,11.72,28.78,0,38-13.29,64-12.7,25.84.59,30.82,14.07,55,14.33,26.09.28,35.06-15.24,63-15.3,24.68-.06,30.12,12,58,12.7,29.07.69,42.15-12,68-10.42,20.52,1.26,19.55,9.71,41,11.39,26,2,37.61-9.56,73-10.09,33-.5,40.69,9.3,76,8.47,25-.6,30-5.7,53-6.19,26.73-.57,50.2,5.69,67,11.72"/>
  <path class="cls-1" d="M-11,82.12a98.26,98.26,0,0,0,40,9.44c30.62.74,42.83-12.55,76-12.7,31-.14,36.71,11.4,69,11.72,35.5.36,45.94-13.42,80-12.7,30.81.66,35.76,12.22,65,12.38,33,.17,43.92-14.49,74-13.68,28,.76,33,13.82,59,14,28.61.21,39-15.45,66-15,26,.46,31.5,15.27,57,15.63,27.48.4,39.32-16.54,66-16,24,.53,27.88,14.55,53,15.3,27,.81,40.28-14.87,67-14,24.54.8,27.4,14.48,52,15.31,26.74.89,39.83-14.72,68-14,24.41.62,27.14,12.66,52,13.68,31,1.28,47.9-16.59,80-16.28,13.08.13,32.36,3.31,55,19.21"/>
  <path class="cls-1" d="M-6,101a86.62,86.62,0,0,0,34,7.49c29.61.43,41.34-14.46,72-14.65,26.92-.17,31.5,11.23,61,12,35.78,1,50.37-15.17,85-14,28.94,1,32,12.71,60,13.35,33.81.77,48.43-15.87,80-14.66,26.37,1,28.61,13.11,55,14,30.62,1,45.55-14.63,75-13.36,25.53,1.11,28.27,13.48,52,14,27.28.6,38.92-15.42,67-15,24.88.39,29.61,13.19,55,13.67,28.41.55,41.76-15.1,67-14,22,1,21.8,13.27,46,15,27.5,1.94,45.25-12.72,75-11.07,25.24,1.4,26.26,12.71,50,13.68,27.65,1.12,41.22-13.64,72-14,14.14-.17,35.09,2.66,62,17.59"/>
  <path class="cls-1" d="M-10,112.73a72.27,72.27,0,0,0,36,10.42c28.5.29,41-17.5,69-17.26,25.8.22,30.22,15.48,59,16.61,31.95,1.25,47.55-16.75,82-16,30.55.7,35.93,15.25,65,15.63,34.57.46,50.84-19.82,80-18.56,26.33,1.13,28.38,18.32,54,19.21,28.24,1,45.22-19.23,74-18.23,24.68.85,27,16.23,52,17.25,30.42,1.26,52.4-20.55,79-18.88,22,1.38,21.63,17.29,43,18.23,22.16,1,35.79-15.53,61-15,24.08.54,27.71,16,53,16.94,27.24,1,42.07-16.12,71-15.31,26.24.74,30.24,15.3,56,16,26.91.68,37.35-14.84,70-16.61,17.1-.93,43,1.77,81,18.24"/>
  <path class="cls-1" d="M-8,130a101.87,101.87,0,0,0,37,7.48c25.31.34,33.46-8.95,60-9.76,30.27-.94,37.15,10.59,70,11.07,37.15.53,50.36-13.89,84-12.38,27.8,1.25,30.3,11.62,55,12,34.47.6,51.27-19.22,80-17.91,24.25,1.11,25.26,15.83,50,16.93,27.31,1.22,42.26-16,73-15.3,27,.6,31.15,14.22,59,15,30.15.82,43.45-14.65,73-13.68,27.33.9,32.72,14.68,57,14.66,25.21,0,33.7-14.9,58-14.66,22.36.22,25.92,12.91,51,14,28.22,1.23,42-14,73-13.35,26.55.6,29.57,12.08,57,13,28.64,1,40.28-11,79-14,28.48-2.21,55.76,1.68,74,5.21"/>
  <path class="cls-1" d="M-7,148.22a74,74,0,0,0,32,8.47c27.42,1.23,40.41-11.19,74-11.4,26.72-.17,30.18,7.61,59,7.81,31.92.23,37.44-9.25,71-9.76,31.87-.5,37.37,7.89,70,7.49,33.45-.42,38.34-9.36,69-9.12,31.85.24,36.61,10,68,10.09,30.95.13,36.9-9.28,69-9.12,28.45.15,31.9,7.58,61,7.82,31.84.26,38-8.55,68-8.14,31.63.43,38,10.39,66,9.77,27.56-.62,32.38-10.47,58-10.42s30.46,10,57,10.42c28.56.49,36.82-10.74,66-10.42,27.58.29,32.87,10.46,59,10.42,26.63,0,33.65-10.63,64-12.7,17-1.16,39.09.49,68,8.46"/>
  <path class="cls-1" d="M-14,161.57A114.74,114.74,0,0,0,29,171c28.39.73,38.76-9,73-9.44,28.19-.39,31.19,6,59,5.54,35.05-.63,44.28-11.1,71-9.77,22.87,1.13,22.15,9.1,45,10.74,32.9,2.37,50.76-13,88-11.72,30.16,1,33.14,11.58,63,12,31.59.49,40.3-11.14,72-10.75,31.14.39,36.25,11.79,66,12.05,33.36.3,42-13.9,76-14,33.82-.1,44.26,13.85,76,12.7,26.52-1,32.3-11.18,57-10.75,20.42.36,22.23,7.44,46,8.8,24.62,1.4,31.49-5.7,62-6.19,32.94-.53,38.24,7.53,69,6.84,30.07-.68,36.74-8.64,66-9.45,23.77-.65,44.42,3.92,58,7.82"/>
  <path class="cls-1" d="M0,183.39A178.23,178.23,0,0,0,29,186c31.5.27,39.7-7.94,69-9.11,32.43-1.3,39.78,8.07,75,6.83,26.76-.93,29.33-6.57,54-6.51,27.59.08,31.53,7.16,58,7.82,32.7.81,38.69-9.69,76-10.75,34.75-1,42.29,7.76,79,6.51,30.61-1,33-7.38,61-7.49,32.37-.11,37.35,8.34,68,8.47,35.89.15,43.18-11.38,78-11.07,31.71.28,35.56,9.94,69,10.09,29.39.14,36.18-7.28,67-6.51,24.1.6,25.17,5.27,49,6.19,33.22,1.28,40.63-7.42,77-8.47,37.62-1.08,48.88,7.67,90,8.14a308.26,308.26,0,0,0,72-7.81"/>
  <path class="cls-1" d="M1080.5,572.35c-38.42-13.83-65.78-15.87-84-15-31.57,1.54-39.72,12-71,12-31.83,0-38.94-10.77-71-10.42-28.85.31-33,9.14-63,9.44-28.31.29-32.83-7.46-64-7.81-30-.34-33.84,6.74-65,6.84-33.84.1-39.81-8.2-71-7.17-26.38.87-30.76,7.09-55,6.51-22.34-.53-24.52-5.94-45-6.18-26.74-.33-32.43,8.76-59,9.11-28.37.38-34.76-9.8-64-9.76-28.25,0-33.81,9.51-62,9.44-28-.08-32.77-9.46-61-9.77-29.57-.32-35.09,9.82-67,10.42-32.46.61-38.51-9.25-73-9.12-33.3.13-44.7,9.45-74.53,8.14a118.56,118.56,0,0,1-40-8.46"/>
  <path class="cls-1" d="M1077,554.93a121,121,0,0,0-52-13c-31-.81-42.33,10-79,10.42-35.78.38-43-9.76-77-8.79-33.14,1-36.53,10.88-71,11.72-28.89.71-33.6-6.09-66-5.86-33.51.24-37.19,7.58-68,7.49-35-.1-42-9.6-73-8.46-27,1-32.64,8.63-56,7.81-21.39-.75-23.35-7.39-43-7.81-25.3-.55-32.17,10.24-60,10.74-25.18.46-29.81-8.19-59-8.79-29.36-.6-35.34,7.93-66,7.81-31.42-.11-36.73-9.11-66-8.79-30.3.34-34.8,10.09-65,10.42-29.81.33-34.75-9.06-66-9.11-30.91-.06-41.72,9.1-71,8.14a123.42,123.42,0,0,1-39-7.49"/>
  <path class="cls-1" d="M1080.15,533.86c-12.9-3.64-33.17-8.11-56.5-7.42-32.48,1-40.37,11-71.25,11.57-32.81.59-39.84-10.49-72.7-10.23C844,528.05,836,541.27,801.57,541c-29.69-.21-34.31-10.13-64.7-10.29-33.06-.18-41.32,11.48-73.29,10.94-29-.49-34.09-10.25-61.68-10-27.82.27-35.21,10.31-59.38,9.54-23.58-.75-25.89-10.61-48.77-11.38-26.89-.91-37.59,12.22-67.23,11.87-24.5-.29-28.14-9.4-53.65-9.72-26.76-.33-34.34,9.54-62.41,9.24-22-.24-23-6.39-47.53-7.81-32.05-1.86-42.12,7.94-79.5,7.72-33-.19-37.76-7.88-67.48-7-31.19.91-38.81,9.76-63.38,9.57-13.76-.11-32.79-3.06-55.07-15.9"/>
  <path class="cls-1" d="M1075,518.13a189.14,189.14,0,0,0-50-5.21c-32.55,1.26-39.13,11.59-68,12.38-32.18.87-40.57-11.51-75-11.4-34.2.11-40.92,12.37-75,12.37-33.87,0-43.08-12.11-74-11.07-28.35,1-31.64,11.52-59,12-29.18.57-38.15-11.19-68-10.75-28,.42-33.86,11-60,10.75-26.78-.24-32.75-11.43-58-11.4-27.27,0-35.59,13.12-61,12.7-23.49-.38-27.41-11.74-52-12.37-25.71-.66-35.72,11.39-62,10.74-22.82-.56-24.27-9.86-49-11.39-30-1.87-42.66,11-79,10.74-32.84-.19-39.7-10.75-71-10.09-29.22.62-36.55,10.11-62,10.09-13.29,0-32.54-2.6-56-15.3"/>
  <path class="cls-1" d="M1074,505.43a157.46,157.46,0,0,0-39-5.86c-34.22-.92-46,9.25-81,9.44-33.58.19-38.89-9.06-72-8.46-32.67.58-36.46,9.74-67,10.09-35.84.41-45.9-12-79-11.07-31.19.9-37,12.37-65,12.05-27.67-.32-33.47-11.68-60-11.72-28.78,0-38,13.29-64,12.7-25.84-.59-30.82-14.07-55-14.33-26.09-.28-35.06,15.24-63,15.3-24.68.06-30.12-12-58-12.7-29.07-.69-42.15,12-68,10.42-20.52-1.26-19.55-9.71-41-11.39-26-2-37.61,9.55-73,10.09-33,.5-40.69-9.3-76-8.47-25,.59-30,5.7-53,6.19C33.27,508.28,9.8,502-7,496"/>
  <path class="cls-1" d="M1079,492.73a98.26,98.26,0,0,0-40-9.44c-30.62-.74-42.83,12.55-76,12.7-31,.14-36.71-11.4-69-11.72-35.5-.36-45.94,13.42-80,12.7-30.81-.66-35.76-12.22-65-12.38-33-.17-43.92,14.49-74,13.68-28-.76-33-13.82-59-14-28.61-.21-39,15.45-66,15-26-.46-31.5-15.27-57-15.64-27.48-.39-39.32,16.55-66,16-24-.53-27.88-14.55-53-15.3-27-.81-40.28,14.87-67,14-24.54-.8-27.4-14.48-52-15.31-26.74-.89-39.83,14.72-68,14-24.41-.62-27.14-12.66-52-13.68-31-1.28-47.9,16.59-80,16.28-13.08-.13-32.36-3.31-55-19.21"/>
  <path class="cls-1" d="M1074,473.85a86.62,86.62,0,0,0-34-7.49c-29.61-.43-41.34,14.46-72,14.65-26.92.17-31.5-11.23-61-12.05-35.78-1-50.37,15.17-85,14-28.94-1-32-12.71-60-13.35-33.81-.77-48.43,15.87-80,14.66-26.37-1-28.61-13.11-55-14-30.62-1-45.55,14.63-75,13.35-25.53-1.1-28.27-13.47-52-14-27.28-.6-38.92,15.42-67,15-24.88-.39-29.61-13.19-55-13.67-28.41-.55-41.76,15.1-67,14-22-1-21.8-13.27-46-15C237.5,468,219.75,482.66,190,481c-25.24-1.4-26.26-12.71-50-13.68-27.65-1.12-41.22,13.63-72,14-14.14.17-35.09-2.66-62-17.59"/>
  <path class="cls-1" d="M1078,462.12a72.27,72.27,0,0,0-36-10.42c-28.5-.29-41,17.5-69,17.26-25.8-.22-30.22-15.48-59-16.61-32-1.25-47.55,16.74-82,16-30.55-.7-35.93-15.25-65-15.63-34.57-.46-50.84,19.82-80,18.56-26.33-1.13-28.38-18.32-54-19.21-28.24-1-45.22,19.23-74,18.23-24.68-.85-27-16.23-52-17.25-30.42-1.26-52.4,20.55-79,18.88-22-1.38-21.63-17.29-43-18.23-22.16-1-35.79,15.53-61,15-24.08-.54-27.71-16-53-16.94-27.24-1-42.07,16.12-71,15.31-26.24-.74-30.24-15.3-56-16-26.91-.68-37.35,14.84-70,16.61-17.1.93-43-1.77-81-18.24"/>
  <path class="cls-1" d="M1076,444.86a101.87,101.87,0,0,0-37-7.48c-25.31-.34-33.46,8.94-60,9.76-30.27.94-37.15-10.59-70-11.07-37.15-.53-50.36,13.89-84,12.38-27.8-1.25-30.3-11.62-55-12.05-34.47-.6-51.27,19.22-80,17.91-24.25-1.11-25.26-15.83-50-16.93-27.31-1.22-42.26,16-73,15.3-27-.6-31.15-14.22-59-15-30.15-.82-43.45,14.65-73,13.68-27.33-.9-32.72-14.68-57-14.66-25.21,0-33.7,14.9-58,14.66-22.36-.22-25.92-12.91-51-14-28.22-1.23-42,14.05-73,13.35-26.55-.6-29.57-12.08-57-13-28.64-1-40.28,11-79,14-28.48,2.21-55.76-1.69-74-5.21"/>
  <path class="cls-1" d="M1075,426.63a74,74,0,0,0-32-8.47c-27.42-1.23-40.41,11.19-74,11.4-26.72.17-30.18-7.61-59-7.82-31.92-.22-37.44,9.26-71,9.77-31.87.5-37.37-7.89-70-7.49-33.45.42-38.34,9.36-69,9.12-31.85-.24-36.61-10-68-10.09-31-.13-36.9,9.28-69,9.11-28.45-.14-31.9-7.57-61-7.81-31.84-.26-38,8.55-68,8.14-31.63-.44-38-10.39-66-9.77-27.56.62-32.38,10.47-58,10.42s-30.46-10-57-10.42c-28.56-.49-36.82,10.73-66,10.42-27.58-.29-32.87-10.46-59-10.42-26.63,0-33.65,10.63-64,12.7-17,1.16-39.09-.49-68-8.47"/>
  <path class="cls-1" d="M1082,413.28a115,115,0,0,0-43-9.45c-28.39-.72-38.76,9-73,9.45-28.19.39-31.19-6-59-5.54-35,.63-44.28,11.1-71,9.77-22.87-1.13-22.15-9.1-45-10.74-32.9-2.37-50.76,13-88,11.72-30.16-1-33.14-11.58-63-12.05-31.59-.5-40.3,11.14-72,10.75-31.14-.39-36.25-11.79-66-12.05-33.36-.3-42,13.9-76,14-33.82.1-44.26-13.85-76-12.7-26.52,1-32.3,11.18-57,10.75-20.42-.36-22.23-7.45-46-8.8-24.62-1.4-31.49,5.7-62,6.19-32.94.53-38.24-7.53-69-6.84-30.07.68-36.74,8.64-66,9.45-23.77.65-44.42-3.92-58-7.82"/>
  <path class="cls-1" d="M1068,391.46a178.23,178.23,0,0,0-29-2.6c-31.5-.27-39.7,7.94-69,9.11-32.43,1.3-39.78-8.07-75-6.83-26.76.93-29.33,6.57-54,6.51-27.59-.08-31.53-7.16-58-7.82-32.7-.81-38.69,9.69-76,10.75-34.75,1-42.29-7.77-79-6.51-30.61,1-33,7.38-61,7.49-32.37.11-37.35-8.34-68-8.47-35.89-.15-43.18,11.38-78,11.07-31.71-.29-35.56-9.94-69-10.09-29.39-.14-36.18,7.28-67,6.51-24.1-.6-25.17-5.27-49-6.19-33.22-1.28-40.63,7.42-77,8.47-37.62,1.08-48.88-7.67-90-8.14a308.26,308.26,0,0,0-72,7.81"/>
  <path class="cls-1" d="M1080.5,389c-38.42-13.83-65.78-15.87-84-15-31.57,1.54-39.72,12-71,12.05-31.83,0-38.94-10.77-71-10.42-28.85.31-33,9.14-63,9.44-28.31.29-32.83-7.46-64-7.81-30-.34-33.84,6.74-65,6.84-33.84.1-39.81-8.2-71-7.17-26.38.88-30.76,7.09-55,6.51-22.34-.53-24.52-5.94-45-6.18-26.74-.33-32.43,8.76-59,9.11-28.37.38-34.76-9.8-64-9.76-28.25,0-33.81,9.51-62,9.44-28-.08-32.77-9.46-61-9.77-29.57-.32-35.09,9.83-67,10.42-32.46.61-38.51-9.25-73-9.12-33.3.13-44.7,9.45-74.53,8.14a118.56,118.56,0,0,1-40-8.46"/>
  <path class="cls-1" d="M1077,371.58a121,121,0,0,0-52-13c-31-.81-42.33,10-79,10.42-35.78.38-43-9.76-77-8.79-33.14.95-36.53,10.88-71,11.72-28.89.71-33.6-6.09-66-5.86-33.51.24-37.19,7.58-68,7.49-35-.1-42-9.6-73-8.46-27,1-32.64,8.63-56,7.81-21.39-.75-23.35-7.39-43-7.81-25.3-.55-32.17,10.24-60,10.74-25.18.46-29.81-8.19-59-8.79-29.36-.6-35.34,7.93-66,7.81-31.42-.11-36.73-9.11-66-8.79-30.3.34-34.8,10.09-65,10.42-29.81.33-34.75-9.06-66-9.11-30.91-.06-41.72,9.1-71,8.14A123.42,123.42,0,0,1,0,368"/>
  <path class="cls-1" d="M1080.15,350.51c-12.9-3.64-33.17-8.11-56.5-7.42-32.48,1-40.37,11-71.25,11.57-32.81.59-39.84-10.49-72.7-10.23-35.72.28-43.74,13.49-78.13,13.25-29.69-.21-34.31-10.13-64.7-10.29-33.06-.18-41.32,11.48-73.29,10.94-29-.49-34.09-10.25-61.68-10-27.82.27-35.21,10.31-59.38,9.54-23.58-.75-25.89-10.61-48.77-11.38-26.89-.91-37.59,12.23-67.23,11.87-24.5-.29-28.14-9.4-53.65-9.72-26.76-.33-34.34,9.54-62.41,9.24-22-.24-23-6.39-47.53-7.81-32.05-1.86-42.12,7.94-79.5,7.73-33-.2-37.76-7.89-67.48-7-31.19.91-38.81,9.76-63.38,9.57-13.76-.11-32.79-3.06-55.07-15.9"/>
  <path class="cls-1" d="M1075,334.78a189.14,189.14,0,0,0-50-5.21c-32.55,1.26-39.13,11.59-68,12.38-32.18.87-40.57-11.51-75-11.4-34.2.11-40.92,12.37-75,12.37-33.87,0-43.08-12.11-74-11.07-28.35,1-31.64,11.52-59,12-29.18.57-38.15-11.19-68-10.75-28,.42-33.86,11-60,10.75-26.78-.24-32.75-11.43-58-11.4-27.27,0-35.59,13.12-61,12.7-23.49-.38-27.41-11.74-52-12.37-25.71-.66-35.72,11.39-62,10.74-22.82-.56-24.27-9.86-49-11.39-30-1.87-42.66,10.95-79,10.74-32.84-.19-39.7-10.75-71-10.09-29.22.62-36.55,10.11-62,10.09-13.29,0-32.54-2.6-56-15.3"/>
  <path class="cls-1" d="M1074,322.08a157.46,157.46,0,0,0-39-5.86c-34.22-.92-46,9.25-81,9.44-33.58.19-38.89-9.06-72-8.46-32.67.58-36.46,9.74-67,10.09-35.84.41-45.9-12-79-11.07-31.19.9-37,12.37-65,12-27.67-.32-33.47-11.68-60-11.72-28.78-.05-38,13.29-64,12.7-25.84-.59-30.82-14.07-55-14.33-26.09-.28-35.06,15.24-63,15.3-24.68.06-30.12-12-58-12.7-29.07-.69-42.15,12-68,10.42-20.52-1.26-19.55-9.71-41-11.39-26-2.05-37.61,9.56-73,10.09-33,.5-40.69-9.3-76-8.47-25,.6-30,5.7-53,6.19-26.73.57-50.2-5.69-67-11.72"/>
  <path class="cls-1" d="M1079,309.38a98.26,98.26,0,0,0-40-9.44c-30.62-.74-42.83,12.55-76,12.7-31,.14-36.71-11.4-69-11.72-35.5-.36-45.94,13.42-80,12.7-30.81-.66-35.76-12.22-65-12.38-33-.17-43.92,14.49-74,13.68-28-.76-33-13.82-59-14-28.61-.21-39,15.45-66,15-26-.46-31.5-15.27-57-15.63-27.48-.4-39.32,16.54-66,16-24-.53-27.88-14.55-53-15.3-27-.81-40.28,14.87-67,14-24.54-.8-27.4-14.48-52-15.31-26.74-.89-39.83,14.72-68,14-24.41-.62-27.14-12.66-52-13.68-31-1.28-47.9,16.59-80,16.28-13.08-.13-32.36-3.31-55-19.21"/>
  <path class="cls-1" d="M1074,290.5a86.62,86.62,0,0,0-34-7.49c-29.61-.43-41.34,14.46-72,14.65-26.92.17-31.5-11.23-61-12.05-35.78-1-50.37,15.17-85,14-28.94-1-32-12.71-60-13.35-33.81-.77-48.43,15.87-80,14.66-26.37-1-28.61-13.11-55-14-30.62-1-45.55,14.63-75,13.36-25.53-1.11-28.27-13.48-52-14-27.28-.6-38.92,15.42-67,15-24.88-.39-29.61-13.19-55-13.67-28.41-.55-41.76,15.1-67,14-22-1-21.8-13.27-46-15-27.5-1.94-45.25,12.72-75,11.07-25.24-1.4-26.26-12.71-50-13.68-27.65-1.12-41.22,13.64-72,14-14.14.17-35.09-2.66-62-17.59"/>
  <path class="cls-1" d="M1078,278.77a72.27,72.27,0,0,0-36-10.42c-28.5-.29-41,17.5-69,17.26-25.8-.22-30.22-15.48-59-16.61-32-1.25-47.55,16.75-82,16-30.55-.7-35.93-15.25-65-15.63-34.57-.46-50.84,19.82-80,18.56-26.33-1.13-28.38-18.32-54-19.21-28.24-1-45.22,19.23-74,18.23-24.68-.85-27-16.23-52-17.25-30.42-1.26-52.4,20.55-79,18.88-22-1.38-21.63-17.29-43-18.23-22.16-1-35.79,15.53-61,15-24.08-.54-27.71-16-53-16.94-27.24-1-42.07,16.12-71,15.31-26.24-.74-30.24-15.3-56-16-26.91-.68-37.35,14.84-70,16.61-17.1.93-43-1.77-81-18.24"/>
  <path class="cls-1" d="M1076,261.51a101.87,101.87,0,0,0-37-7.48c-25.31-.34-33.46,9-60,9.76-30.27.94-37.15-10.59-70-11.07-37.15-.53-50.36,13.89-84,12.38-27.8-1.25-30.3-11.62-55-12.05-34.47-.6-51.27,19.22-80,17.91-24.25-1.11-25.26-15.83-50-16.93-27.31-1.22-42.26,16-73,15.3-27-.6-31.15-14.22-59-15-30.15-.82-43.45,14.65-73,13.68-27.33-.9-32.72-14.68-57-14.66-25.21,0-33.7,14.9-58,14.66-22.36-.22-25.92-12.91-51-14-28.22-1.23-42,14-73,13.35-26.55-.6-29.57-12.08-57-13-28.64-1-40.28,11-79,14-28.48,2.21-55.76-1.68-74-5.21"/>
  <path class="cls-1" d="M1075,243.28a74,74,0,0,0-32-8.47c-27.42-1.23-40.41,11.19-74,11.4-26.72.17-30.18-7.61-59-7.81-31.92-.23-37.44,9.25-71,9.76-31.87.5-37.37-7.89-70-7.49-33.45.42-38.34,9.36-69,9.12-31.85-.24-36.61-10-68-10.09-31-.13-36.9,9.28-69,9.12-28.45-.15-31.9-7.58-61-7.82-31.84-.26-38,8.55-68,8.14-31.63-.43-38-10.39-66-9.77-27.56.62-32.38,10.47-58,10.42s-30.46-10-57-10.42c-28.56-.49-36.82,10.74-66,10.42-27.58-.29-32.87-10.46-59-10.42-26.63,0-33.65,10.63-64,12.7-17,1.16-39.09-.49-68-8.46"/>
  <path class="cls-1" d="M1082,229.93a114.74,114.74,0,0,0-43-9.44c-28.39-.73-38.76,9-73,9.44-28.19.39-31.19-6-59-5.54-35,.63-44.28,11.1-71,9.77-22.87-1.13-22.15-9.1-45-10.74-32.9-2.37-50.76,13-88,11.72-30.16-1-33.14-11.58-63-12-31.59-.49-40.3,11.14-72,10.75-31.14-.39-36.25-11.79-66-12.05-33.36-.3-42,13.9-76,14-33.82.1-44.26-13.85-76-12.7-26.52,1-32.3,11.18-57,10.75-20.42-.36-22.23-7.44-46-8.8-24.62-1.4-31.49,5.7-62,6.19-32.94.53-38.24-7.53-69-6.84-30.07.68-36.74,8.64-66,9.45-23.77.65-44.42-3.92-58-7.82"/>
  <path class="cls-1" d="M1068,208.11a178.23,178.23,0,0,0-29-2.6c-31.5-.27-39.7,7.94-69,9.11-32.43,1.3-39.78-8.07-75-6.83-26.76.93-29.33,6.57-54,6.51-27.59-.08-31.53-7.16-58-7.82-32.7-.81-38.69,9.69-76,10.75-34.75,1-42.29-7.76-79-6.51-30.61,1-33,7.38-61,7.49-32.37.11-37.35-8.34-68-8.47-35.89-.15-43.18,11.38-78,11.07-31.71-.28-35.56-9.94-69-10.09-29.39-.14-36.18,7.28-67,6.51-24.1-.6-25.17-5.27-49-6.19-33.22-1.28-40.63,7.42-77,8.47-37.62,1.08-48.88-7.67-90-8.14a308.26,308.26,0,0,0-72,7.81"/>
  <path class="cls-1" d="M-7,203c39.69-16,70.68-16.6,92-14,33.77,4.11,41.55,16.08,75,15,33.7-1.09,37.93-13.64,72-13,30.85.58,31.82,10.95,62,11,33.88.06,36.21-13,69-13,33.24,0,35.2,13.43,68,13,32.14-.42,33.79-13.36,66-14,32.63-.65,34.44,12.56,70,14,33.83,1.37,35.53-10.44,74-11,34.33-.5,34.89,8.89,72,9,32.57.1,34.11-7.13,72-8,30.88-.71,30.72,4.07,64,4,38-.08,39.41-6.29,78-7,32.14-.59,37.8,3.6,74,4a474.53,474.53,0,0,0,67-4"/>
  <path class="cls-1" d="M1073,584.85a112.18,112.18,0,0,0-39-13c-29.86-4-41.94,7.46-73,11-40.88,4.66-41.92-12.66-89-11-39.06,1.38-39.2,13.33-77,13-35.42-.31-37-10.81-75-11-32.3-.16-33.81,7.42-69,7-32.62-.39-32.55-6.91-62-6-31,.95-33.88,8.25-64,8-26.83-.22-26-6-52-6-30.95,0-34.72,8.24-65,8-25.06-.2-23.42-5.84-50-7-35.56-1.55-39.37,8.51-73,7-29.19-1.31-28.37-9-58-10-31.76-1.1-33.66,7.68-65,7-37.13-.8-37.46-13.18-65-10-28.72,3.32-36.94,17.77-63,16-16.06-1.09-28.8-7.67-37-13"/>
</svg>
