<svg width="44" height="41" viewBox="0 0 44 41" fill="none" xmlns="http://www.w3.org/2000/svg">
<path d="M22.6924 11.62V28H19.6504V14.1706H16.1872V11.62H22.6924ZM27.7669 28.1638C27.2365 28.1638 26.7841 27.9844 26.4097 27.6256C26.0353 27.2512 25.8481 26.7832 25.8481 26.2216C25.8481 25.6444 26.0275 25.1764 26.3863 24.8176C26.7607 24.4588 27.2209 24.2794 27.7669 24.2794C28.3129 24.2794 28.7653 24.4588 29.1241 24.8176C29.4985 25.1764 29.6857 25.6444 29.6857 26.2216C29.6857 26.7832 29.4985 27.2512 29.1241 27.6256C28.7497 27.9844 28.2973 28.1638 27.7669 28.1638Z" fill="black"/>
<path d="M1.88402 28.3393C-0.159601 20.7522 5.77348 10.2317 11.3016 5.70474C19.7774 -1.19429 34.4689 0.752288 40.4961 10.2317C46.288 19.3398 41.3061 31.146 32.9621 36.4878C23.7423 42.3909 9.78538 40.8336 3.76754 31.9609C-2.98488 22.0017 3.44734 7.51551 14.1269 2.98859C20.4273 0.335812 29.8166 0.507835 35.7874 6.61012C38.944 9.95767 40.6924 14.3145 40.6924 18.8328C40.6924 23.3512 38.944 27.708 35.7874 31.0555C29.4399 37.538 19.2877 37.6648 12.2434 33.7717C5.49096 30.0415 -0.074842 21.6848 2.82578 12.9478C4.16013 9.06577 6.87301 5.759 10.489 3.607C14.105 1.455 18.3934 0.595036 22.6027 1.17782C32.0203 2.58116 41.9276 12.2597 40.4961 21.0963" stroke="black" stroke-width="0.5" stroke-miterlimit="10"/>
</svg>
