<svg width="44" height="41" viewBox="0 0 44 41" fill="none" xmlns="http://www.w3.org/2000/svg">
<path d="M26.3848 10.62V12.6558L20.02 27H16.7674L22.9216 13.194H16.4866V15.9786H13.6552V10.62H26.3848ZM28.9259 27.1638C28.3955 27.1638 27.9431 26.9844 27.5687 26.6256C27.1943 26.2512 27.0071 25.7832 27.0071 25.2216C27.0071 24.6444 27.1865 24.1764 27.5453 23.8176C27.9197 23.4588 28.3799 23.2794 28.9259 23.2794C29.4719 23.2794 29.9243 23.4588 30.2831 23.8176C30.6575 24.1764 30.8447 24.6444 30.8447 25.2216C30.8447 25.7832 30.6575 26.2512 30.2831 26.6256C29.9087 26.9844 29.4563 27.1638 28.9259 27.1638Z" fill="black"/>
<path d="M1.88402 28.3393C-0.159601 20.7522 5.77348 10.2317 11.3016 5.70474C19.7774 -1.19429 34.4689 0.752288 40.4962 10.2317C46.288 19.3398 41.3061 31.146 32.9621 36.4878C23.7423 42.3909 9.78538 40.8336 3.76754 31.9609C-2.98488 22.0017 3.44734 7.51551 14.1269 2.98859C20.4273 0.335812 29.8166 0.507835 35.7874 6.61012C38.944 9.95767 40.6924 14.3145 40.6924 18.8328C40.6924 23.3512 38.944 27.708 35.7874 31.0555C29.4399 37.538 19.2877 37.6648 12.2434 33.7717C5.49096 30.0415 -0.0748421 21.6848 2.82578 12.9478C4.16013 9.06577 6.87301 5.759 10.489 3.607C14.105 1.455 18.3934 0.595036 22.6027 1.17782C32.0203 2.58116 41.9276 12.2597 40.4962 21.0963" stroke="black" stroke-width="0.5" stroke-miterlimit="10"/>
</svg>
