<svg width="44" height="41" viewBox="0 0 44 41" fill="none" xmlns="http://www.w3.org/2000/svg">
<path d="M19.552 10.386C21.7984 10.386 23.5378 11.088 24.7702 12.492C26.0182 13.896 26.6422 15.9084 26.6422 18.5292C26.6422 20.37 26.3068 21.9456 25.636 23.256C24.9652 24.5508 24.0214 25.5414 22.8046 26.2278C21.6034 26.8986 20.2072 27.234 18.616 27.234C17.7736 27.234 16.978 27.1482 16.2292 26.9766C15.496 26.7894 14.8564 26.5242 14.3104 26.181L15.4336 23.8878C16.2448 24.4182 17.2822 24.6834 18.5458 24.6834C20.1214 24.6834 21.3538 24.1998 22.243 23.2326C23.1322 22.2654 23.5768 20.8692 23.5768 19.044V19.0206C23.0932 19.5822 22.477 20.0112 21.7282 20.3076C20.9794 20.5884 20.137 20.7288 19.201 20.7288C18.1246 20.7288 17.1574 20.526 16.2994 20.1204C15.4414 19.6992 14.7706 19.1064 14.287 18.342C13.8034 17.5776 13.5616 16.6962 13.5616 15.6978C13.5616 14.637 13.8268 13.7088 14.3572 12.9132C14.8876 12.102 15.6052 11.478 16.51 11.0412C17.4148 10.6044 18.4288 10.386 19.552 10.386ZM19.786 18.342C20.7688 18.342 21.5644 18.0768 22.1728 17.5464C22.7968 17.016 23.1088 16.3452 23.1088 15.534C23.1088 14.7384 22.8046 14.0832 22.1962 13.5684C21.6034 13.038 20.7766 12.7728 19.7158 12.7728C18.7642 12.7728 17.992 13.0302 17.3992 13.545C16.8064 14.0442 16.51 14.715 16.51 15.5574C16.51 16.4154 16.8064 17.094 17.3992 17.5932C17.992 18.0924 18.7876 18.342 19.786 18.342ZM30.2513 27.1638C29.7209 27.1638 29.2685 26.9844 28.8941 26.6256C28.5197 26.2512 28.3325 25.7832 28.3325 25.2216C28.3325 24.6444 28.5119 24.1764 28.8707 23.8176C29.2451 23.4588 29.7053 23.2794 30.2513 23.2794C30.7973 23.2794 31.2497 23.4588 31.6085 23.8176C31.9829 24.1764 32.1701 24.6444 32.1701 25.2216C32.1701 25.7832 31.9829 26.2512 31.6085 26.6256C31.2341 26.9844 30.7817 27.1638 30.2513 27.1638Z" fill="black"/>
<path d="M1.88402 28.3393C-0.159601 20.7522 5.77348 10.2317 11.3016 5.70474C19.7774 -1.19429 34.4689 0.752288 40.4962 10.2317C46.288 19.3398 41.3061 31.146 32.9621 36.4878C23.7423 42.3909 9.78538 40.8336 3.76754 31.9609C-2.98488 22.0017 3.44734 7.51551 14.1269 2.98859C20.4273 0.335812 29.8166 0.507835 35.7874 6.61012C38.944 9.95767 40.6924 14.3145 40.6924 18.8328C40.6924 23.3512 38.944 27.708 35.7874 31.0555C29.4399 37.538 19.2877 37.6648 12.2434 33.7717C5.49096 30.0415 -0.0748421 21.6848 2.82578 12.9478C4.16013 9.06577 6.87301 5.759 10.489 3.607C14.105 1.455 18.3934 0.595036 22.6027 1.17782C32.0203 2.58116 41.9276 12.2597 40.4962 21.0963" stroke="black" stroke-width="0.5" stroke-miterlimit="10"/>
</svg>
