<svg width="44" height="41" viewBox="0 0 44 41" fill="none" xmlns="http://www.w3.org/2000/svg">
<path d="M28.6312 23.2794H25.7296V27H22.7812V23.2794H13.7956V21.1734L21.8686 10.62H25.1212L17.5162 20.7054H22.8748V17.406H25.7296V20.7054H28.6312V23.2794ZM32.1937 27.1638C31.6633 27.1638 31.2109 26.9844 30.8365 26.6256C30.4621 26.2512 30.2749 25.7832 30.2749 25.2216C30.2749 24.6444 30.4543 24.1764 30.8131 23.8176C31.1875 23.4588 31.6477 23.2794 32.1937 23.2794C32.7397 23.2794 33.1921 23.4588 33.5509 23.8176C33.9253 24.1764 34.1125 24.6444 34.1125 25.2216C34.1125 25.7832 33.9253 26.2512 33.5509 26.6256C33.1765 26.9844 32.7241 27.1638 32.1937 27.1638Z" fill="black"/>
<path d="M1.88402 28.3393C-0.159601 20.7522 5.77348 10.2317 11.3016 5.70474C19.7774 -1.19429 34.4689 0.752288 40.4962 10.2317C46.288 19.3398 41.3061 31.146 32.9621 36.4878C23.7423 42.3909 9.78538 40.8336 3.76754 31.9609C-2.98488 22.0017 3.44734 7.51551 14.1269 2.98859C20.4273 0.335812 29.8166 0.507835 35.7874 6.61012C38.944 9.95767 40.6924 14.3145 40.6924 18.8328C40.6924 23.3512 38.944 27.708 35.7874 31.0555C29.4399 37.538 19.2877 37.6648 12.2434 33.7717C5.49096 30.0415 -0.0748421 21.6848 2.82578 12.9478C4.16013 9.06577 6.87301 5.759 10.489 3.607C14.105 1.455 18.3934 0.595036 22.6027 1.17782C32.0203 2.58116 41.9276 12.2597 40.4962 21.0963" stroke="black" stroke-width="0.5" stroke-miterlimit="10"/>
</svg>
