<svg width="53" height="41" viewBox="0 0 53 41" fill="none" xmlns="http://www.w3.org/2000/svg">
<path d="M25.6532 18.3888C26.5112 18.7788 27.1664 19.3092 27.6188 19.98C28.0868 20.6352 28.3208 21.4074 28.3208 22.2966C28.3208 23.295 28.04 24.1686 27.4784 24.9174C26.9324 25.6662 26.1524 26.2434 25.1384 26.649C24.1244 27.039 22.9466 27.234 21.605 27.234C20.2634 27.234 19.0856 27.039 18.0716 26.649C17.0732 26.2434 16.301 25.6662 15.755 24.9174C15.209 24.1686 14.936 23.295 14.936 22.2966C14.936 21.4074 15.1622 20.6352 15.6146 19.98C16.067 19.3092 16.7144 18.7788 17.5568 18.3888C16.9016 18.03 16.3946 17.562 16.0358 16.9848C15.6926 16.392 15.521 15.7134 15.521 14.949C15.521 14.0286 15.7706 13.2252 16.2698 12.5388C16.7846 11.8524 17.5022 11.322 18.4226 10.9476C19.343 10.5732 20.4038 10.386 21.605 10.386C22.8218 10.386 23.8904 10.5732 24.8108 10.9476C25.7312 11.322 26.4488 11.8524 26.9636 12.5388C27.4784 13.2252 27.7358 14.0286 27.7358 14.949C27.7358 15.7134 27.5564 16.3842 27.1976 16.9614C26.8388 17.5386 26.324 18.0144 25.6532 18.3888ZM21.605 12.7728C20.6534 12.7728 19.8968 12.9756 19.3352 13.3812C18.7892 13.7868 18.5162 14.3562 18.5162 15.0894C18.5162 15.7914 18.7892 16.353 19.3352 16.7742C19.8968 17.1798 20.6534 17.3826 21.605 17.3826C22.5722 17.3826 23.3366 17.1798 23.8982 16.7742C24.4598 16.353 24.7406 15.7914 24.7406 15.0894C24.7406 14.3562 24.452 13.7868 23.8748 13.3812C23.3132 12.9756 22.5566 12.7728 21.605 12.7728ZM21.605 24.8472C22.7282 24.8472 23.6174 24.6132 24.2726 24.1452C24.9278 23.6772 25.2554 23.0298 25.2554 22.203C25.2554 21.3918 24.9278 20.7522 24.2726 20.2842C23.6174 19.8162 22.7282 19.5822 21.605 19.5822C20.4818 19.5822 19.6004 19.8162 18.9608 20.2842C18.3212 20.7522 18.0014 21.3918 18.0014 22.203C18.0014 23.0298 18.3212 23.6772 18.9608 24.1452C19.6004 24.6132 20.4818 24.8472 21.605 24.8472ZM32.3482 27.1638C31.8178 27.1638 31.3654 26.9844 30.991 26.6256C30.6166 26.2512 30.4294 25.7832 30.4294 25.2216C30.4294 24.6444 30.6088 24.1764 30.9676 23.8176C31.342 23.4588 31.8022 23.2794 32.3482 23.2794C32.8942 23.2794 33.3466 23.4588 33.7054 23.8176C34.0798 24.1764 34.267 24.6444 34.267 25.2216C34.267 25.7832 34.0798 26.2512 33.7054 26.6256C33.331 26.9844 32.8786 27.1638 32.3482 27.1638Z" fill="black"/>
<path d="M1.88402 28.3393C-0.159601 20.7522 5.77348 10.2317 11.3016 5.70474C19.7774 -1.19429 34.4689 0.752288 40.4961 10.2317C46.288 19.3398 41.3061 31.146 32.9621 36.4878C23.7423 42.3909 9.78538 40.8336 3.76754 31.9609C-2.98488 22.0017 3.44734 7.51551 14.1269 2.98859C20.4273 0.335812 29.8166 0.507835 35.7874 6.61012C38.944 9.95767 40.6924 14.3145 40.6924 18.8328C40.6924 23.3512 38.944 27.708 35.7874 31.0555C29.4399 37.538 19.2877 37.6648 12.2434 33.7717C5.49096 30.0415 -0.074842 21.6848 2.82578 12.9478C4.16013 9.06577 6.87301 5.759 10.489 3.607C14.105 1.455 18.3934 0.595036 22.6027 1.17782C32.0203 2.58116 41.9276 12.2597 40.4961 21.0963" stroke="black" stroke-width="0.5" stroke-miterlimit="10"/>
</svg>
