<svg width="44" height="41" viewBox="0 0 44 41" fill="none" xmlns="http://www.w3.org/2000/svg">
<path d="M21.4708 16.8912C22.5472 16.8912 23.5144 17.1018 24.3724 17.523C25.2304 17.9286 25.9012 18.5136 26.3848 19.278C26.8684 20.0424 27.1102 20.9238 27.1102 21.9222C27.1102 22.983 26.845 23.919 26.3146 24.7302C25.7842 25.5258 25.0666 26.142 24.1618 26.5788C23.257 27.0156 22.243 27.234 21.1198 27.234C18.8734 27.234 17.1262 26.532 15.8782 25.128C14.6458 23.724 14.0296 21.7116 14.0296 19.0908C14.0296 17.25 14.365 15.6822 15.0358 14.3874C15.7066 13.077 16.6426 12.0864 17.8438 11.4156C19.0606 10.7292 20.4646 10.386 22.0558 10.386C22.8982 10.386 23.686 10.4796 24.4192 10.6668C25.168 10.8384 25.8154 11.0958 26.3614 11.439L25.2382 13.7322C24.427 13.2018 23.3896 12.9366 22.126 12.9366C20.5504 12.9366 19.318 13.4202 18.4288 14.3874C17.5396 15.3546 17.095 16.7508 17.095 18.576V18.5994C17.5786 18.0378 18.1948 17.6166 18.9436 17.3358C19.6924 17.0394 20.5348 16.8912 21.4708 16.8912ZM20.956 24.8472C21.9076 24.8472 22.6798 24.5976 23.2726 24.0984C23.8654 23.5836 24.1618 22.905 24.1618 22.0626C24.1618 21.2046 23.8654 20.526 23.2726 20.0268C22.6798 19.5276 21.8842 19.278 20.8858 19.278C19.903 19.278 19.0996 19.5432 18.4756 20.0736C17.8672 20.604 17.563 21.2748 17.563 22.086C17.563 22.8816 17.8594 23.5446 18.4522 24.075C19.0606 24.5898 19.8952 24.8472 20.956 24.8472ZM30.754 27.1638C30.2236 27.1638 29.7712 26.9844 29.3968 26.6256C29.0224 26.2512 28.8352 25.7832 28.8352 25.2216C28.8352 24.6444 29.0146 24.1764 29.3734 23.8176C29.7478 23.4588 30.208 23.2794 30.754 23.2794C31.3 23.2794 31.7524 23.4588 32.1112 23.8176C32.4856 24.1764 32.6728 24.6444 32.6728 25.2216C32.6728 25.7832 32.4856 26.2512 32.1112 26.6256C31.7368 26.9844 31.2844 27.1638 30.754 27.1638Z" fill="black"/>
<path d="M1.88402 28.3393C-0.159601 20.7522 5.77348 10.2317 11.3016 5.70474C19.7774 -1.19429 34.4689 0.752288 40.4962 10.2317C46.288 19.3398 41.3061 31.146 32.9621 36.4878C23.7423 42.3909 9.78538 40.8336 3.76754 31.9609C-2.98488 22.0017 3.44734 7.51551 14.1269 2.98859C20.4273 0.335812 29.8166 0.507835 35.7874 6.61012C38.944 9.95767 40.6924 14.3145 40.6924 18.8328C40.6924 23.3512 38.944 27.708 35.7874 31.0555C29.4399 37.538 19.2877 37.6648 12.2434 33.7717C5.49096 30.0415 -0.0748421 21.6848 2.82578 12.9478C4.16013 9.06577 6.87301 5.759 10.489 3.607C14.105 1.455 18.3934 0.595036 22.6027 1.17782C32.0203 2.58116 41.9276 12.2597 40.4962 21.0963" stroke="black" stroke-width="0.5" stroke-miterlimit="10"/>
</svg>
