<svg width="44" height="41" viewBox="0 0 44 41" fill="none" xmlns="http://www.w3.org/2000/svg">
<path d="M23.0028 18.3826C24.516 18.5698 25.6704 19.0846 26.466 19.927C27.2616 20.7694 27.6594 21.8224 27.6594 23.086C27.6594 24.0376 27.4176 24.9034 26.934 25.6834C26.4504 26.4634 25.7172 27.0874 24.7344 27.5554C23.7672 28.0078 22.5816 28.234 21.1776 28.234C20.0076 28.234 18.8766 28.0702 17.7846 27.7426C16.7082 27.3994 15.7878 26.9314 15.0234 26.3386L16.3338 23.9752C16.9266 24.4744 17.6442 24.8722 18.4866 25.1686C19.3446 25.4494 20.226 25.5898 21.1308 25.5898C22.2072 25.5898 23.0496 25.3714 23.658 24.9346C24.282 24.4822 24.594 23.8738 24.594 23.1094C24.594 22.345 24.2976 21.7522 23.7048 21.331C23.1276 20.8942 22.2384 20.6758 21.0372 20.6758H19.5396V18.5932L23.2602 14.1706H15.819V11.62H26.9808V13.6558L23.0028 18.3826ZM31.4743 28.1638C30.9439 28.1638 30.4915 27.9844 30.1171 27.6256C29.7427 27.2512 29.5555 26.7832 29.5555 26.2216C29.5555 25.6444 29.7349 25.1764 30.0937 24.8176C30.4681 24.4588 30.9283 24.2794 31.4743 24.2794C32.0203 24.2794 32.4727 24.4588 32.8315 24.8176C33.2059 25.1764 33.3931 25.6444 33.3931 26.2216C33.3931 26.7832 33.2059 27.2512 32.8315 27.6256C32.4571 27.9844 32.0047 28.1638 31.4743 28.1638Z" fill="black"/>
<path d="M1.88402 28.3393C-0.159601 20.7522 5.77348 10.2317 11.3016 5.70474C19.7774 -1.19429 34.4689 0.752288 40.4961 10.2317C46.288 19.3398 41.3061 31.146 32.9621 36.4878C23.7423 42.3909 9.78538 40.8336 3.76754 31.9609C-2.98488 22.0017 3.44734 7.51551 14.1269 2.98859C20.4273 0.335812 29.8166 0.507835 35.7874 6.61012C38.944 9.95767 40.6924 14.3145 40.6924 18.8328C40.6924 23.3512 38.944 27.708 35.7874 31.0555C29.4399 37.538 19.2877 37.6648 12.2434 33.7717C5.49096 30.0415 -0.074842 21.6848 2.82578 12.9478C4.16013 9.06577 6.87301 5.759 10.489 3.607C14.105 1.455 18.3934 0.595036 22.6027 1.17782C32.0203 2.58116 41.9276 12.2597 40.4961 21.0963" stroke="black" stroke-width="0.5" stroke-miterlimit="10"/>
</svg>
