<svg width="44" height="41" viewBox="0 0 44 41" fill="none" xmlns="http://www.w3.org/2000/svg">
<path d="M15.6924 11.62V28H12.6504V14.1706H9.1872V11.62H15.6924ZM25.7745 28.234C24.4641 28.234 23.2941 27.9064 22.2645 27.2512C21.2349 26.5804 20.4237 25.6132 19.8309 24.3496C19.2381 23.0704 18.9417 21.5572 18.9417 19.81C18.9417 18.0628 19.2381 16.5574 19.8309 15.2938C20.4237 14.0146 21.2349 13.0474 22.2645 12.3922C23.2941 11.7214 24.4641 11.386 25.7745 11.386C27.0849 11.386 28.2549 11.7214 29.2845 12.3922C30.3297 13.0474 31.1487 14.0146 31.7415 15.2938C32.3343 16.5574 32.6307 18.0628 32.6307 19.81C32.6307 21.5572 32.3343 23.0704 31.7415 24.3496C31.1487 25.6132 30.3297 26.5804 29.2845 27.2512C28.2549 27.9064 27.0849 28.234 25.7745 28.234ZM25.7745 25.5898C26.9445 25.5898 27.8649 25.1062 28.5357 24.139C29.2221 23.1718 29.5653 21.7288 29.5653 19.81C29.5653 17.8912 29.2221 16.4482 28.5357 15.481C27.8649 14.5138 26.9445 14.0302 25.7745 14.0302C24.6201 14.0302 23.6997 14.5138 23.0133 15.481C22.3425 16.4482 22.0071 17.8912 22.0071 19.81C22.0071 21.7288 22.3425 23.1718 23.0133 24.139C23.6997 25.1062 24.6201 25.5898 25.7745 25.5898ZM36.2374 28.1638C35.707 28.1638 35.2546 27.9844 34.8802 27.6256C34.5058 27.2512 34.3186 26.7832 34.3186 26.2216C34.3186 25.6444 34.498 25.1764 34.8568 24.8176C35.2312 24.4588 35.6914 24.2794 36.2374 24.2794C36.7834 24.2794 37.2358 24.4588 37.5946 24.8176C37.969 25.1764 38.1562 25.6444 38.1562 26.2216C38.1562 26.7832 37.969 27.2512 37.5946 27.6256C37.2202 27.9844 36.7678 28.1638 36.2374 28.1638Z" fill="black"/>
<path d="M1.88402 28.3393C-0.159601 20.7522 5.77348 10.2317 11.3016 5.70474C19.7774 -1.19429 34.4689 0.752288 40.4962 10.2317C46.288 19.3398 41.3061 31.146 32.9621 36.4878C23.7423 42.3909 9.78538 40.8336 3.76754 31.9609C-2.98488 22.0017 3.44734 7.51551 14.1269 2.98859C20.4273 0.335812 29.8166 0.507835 35.7874 6.61012C38.944 9.95767 40.6924 14.3145 40.6924 18.8328C40.6924 23.3512 38.944 27.708 35.7874 31.0555C29.4399 37.538 19.2877 37.6648 12.2434 33.7717C5.49096 30.0415 -0.0748421 21.6848 2.82578 12.9478C4.16013 9.06577 6.87301 5.759 10.489 3.607C14.105 1.455 18.3934 0.595036 22.6027 1.17782C32.0203 2.58116 41.9276 12.2597 40.4962 21.0963" stroke="black" stroke-width="0.5" stroke-miterlimit="10"/>
</svg>
