<svg width="55" height="41" viewBox="0 0 55 41" fill="none" xmlns="http://www.w3.org/2000/svg">
<path d="M22.1542 17.9614C24.463 17.9614 26.1712 18.4138 27.2788 19.3186C28.3864 20.2078 28.9402 21.4246 28.9402 22.969C28.9402 23.9518 28.6984 24.841 28.2148 25.6366C27.7312 26.4322 27.0058 27.064 26.0386 27.532C25.0714 28 23.878 28.234 22.4584 28.234C21.2884 28.234 20.1574 28.0702 19.0654 27.7426C17.9734 27.3994 17.053 26.9314 16.3042 26.3386L17.5912 23.9752C18.1996 24.4744 18.925 24.8722 19.7674 25.1686C20.6254 25.4494 21.5068 25.5898 22.4116 25.5898C23.488 25.5898 24.3304 25.3714 24.9388 24.9346C25.5628 24.4822 25.8748 23.866 25.8748 23.086C25.8748 22.2436 25.5394 21.6118 24.8686 21.1906C24.2134 20.7538 23.0824 20.5354 21.4756 20.5354H17.521L18.3634 11.62H27.9808V14.1706H20.9374L20.5864 17.9614H22.1542ZM32.52 28.1638C31.9896 28.1638 31.5372 27.9844 31.1628 27.6256C30.7884 27.2512 30.6012 26.7832 30.6012 26.2216C30.6012 25.6444 30.7806 25.1764 31.1394 24.8176C31.5138 24.4588 31.974 24.2794 32.52 24.2794C33.066 24.2794 33.5184 24.4588 33.8772 24.8176C34.2516 25.1764 34.4388 25.6444 34.4388 26.2216C34.4388 26.7832 34.2516 27.2512 33.8772 27.6256C33.5028 27.9844 33.0504 28.1638 32.52 28.1638Z" fill="black"/>
<path d="M1.88402 28.3393C-0.159601 20.7522 5.77348 10.2317 11.3016 5.70474C19.7774 -1.19429 34.4689 0.752288 40.4961 10.2317C46.288 19.3398 41.3061 31.146 32.9621 36.4878C23.7423 42.3909 9.78538 40.8336 3.76754 31.9609C-2.98488 22.0017 3.44734 7.51551 14.1269 2.98859C20.4273 0.335812 29.8166 0.507835 35.7874 6.61012C38.944 9.95767 40.6924 14.3145 40.6924 18.8328C40.6924 23.3512 38.944 27.708 35.7874 31.0555C29.4399 37.538 19.2877 37.6648 12.2434 33.7717C5.49096 30.0415 -0.074842 21.6848 2.82578 12.9478C4.16013 9.06577 6.87301 5.759 10.489 3.607C14.105 1.455 18.3934 0.595036 22.6027 1.17782C32.0203 2.58116 41.9276 12.2597 40.4961 21.0963" stroke="black" stroke-width="0.5" stroke-miterlimit="10"/>
</svg>
