<svg width="44" height="41" viewBox="0 0 44 41" fill="none" xmlns="http://www.w3.org/2000/svg">
<path d="M25.8934 24.426V27H13.819V24.9642L20.3242 18.7866C21.0574 18.0846 21.5488 17.4762 21.7984 16.9614C22.0636 16.431 22.1962 15.9084 22.1962 15.3936C22.1962 14.6292 21.9388 14.0442 21.424 13.6386C20.9092 13.233 20.1526 13.0302 19.1542 13.0302C17.485 13.0302 16.2058 13.5996 15.3166 14.7384L13.1872 13.1004C13.8268 12.2424 14.6848 11.5794 15.7612 11.1114C16.8532 10.6278 18.07 10.386 19.4116 10.386C21.19 10.386 22.6096 10.8072 23.6704 11.6496C24.7312 12.492 25.2616 13.6386 25.2616 15.0894C25.2616 15.9786 25.0744 16.8132 24.7 17.5932C24.3256 18.3732 23.608 19.2624 22.5472 20.2608L18.1714 24.426H25.8934ZM29.7028 27.1638C29.1724 27.1638 28.72 26.9844 28.3456 26.6256C27.9712 26.2512 27.784 25.7832 27.784 25.2216C27.784 24.6444 27.9634 24.1764 28.3222 23.8176C28.6966 23.4588 29.1568 23.2794 29.7028 23.2794C30.2488 23.2794 30.7012 23.4588 31.06 23.8176C31.4344 24.1764 31.6216 24.6444 31.6216 25.2216C31.6216 25.7832 31.4344 26.2512 31.06 26.6256C30.6856 26.9844 30.2332 27.1638 29.7028 27.1638Z" fill="black"/>
<path d="M1.88402 28.3393C-0.159601 20.7522 5.77348 10.2317 11.3016 5.70474C19.7774 -1.19429 34.4689 0.752288 40.4961 10.2317C46.288 19.3398 41.3061 31.146 32.9621 36.4878C23.7423 42.3909 9.78538 40.8336 3.76754 31.9609C-2.98488 22.0017 3.44734 7.51551 14.1269 2.98859C20.4273 0.335812 29.8166 0.507835 35.7874 6.61012C38.944 9.95767 40.6924 14.3145 40.6924 18.8328C40.6924 23.3512 38.944 27.708 35.7874 31.0555C29.4399 37.538 19.2877 37.6648 12.2434 33.7717C5.49096 30.0415 -0.074842 21.6848 2.82578 12.9478C4.16013 9.06577 6.87301 5.759 10.489 3.607C14.105 1.455 18.3934 0.595036 22.6027 1.17782C32.0203 2.58116 41.9276 12.2597 40.4961 21.0963" stroke="black" stroke-width="0.5" stroke-miterlimit="10"/>
</svg>
