<?xml version="1.0" encoding="utf-8"?>
<!-- Generator: Adobe Illustrator 25.2.3, SVG Export Plug-In . SVG Version: 6.00 Build 0)  -->
<svg version="1.1" id="Layer_1" xmlns="http://www.w3.org/2000/svg" xmlns:xlink="http://www.w3.org/1999/xlink" x="0px" y="0px"
	 viewBox="0 0 44 41" style="enable-background:new 0 0 44 41;" xml:space="preserve">
<style type="text/css">
	.st0{fill:none;stroke:#000000;stroke-width:0.5;stroke-miterlimit:10;}
</style>
<g>
	<path d="M22.2,18c2.3,0,4,0.5,5.1,1.4c1.1,0.9,1.7,2.1,1.7,3.7c0,1-0.2,1.9-0.7,2.7c-0.5,0.8-1.2,1.4-2.2,1.9
		c-1,0.5-2.2,0.7-3.6,0.7c-1.2,0-2.3-0.2-3.4-0.5c-1.1-0.3-2-0.8-2.8-1.4l1.3-2.4c0.6,0.5,1.3,0.9,2.2,1.2c0.9,0.3,1.7,0.4,2.6,0.4
		c1.1,0,1.9-0.2,2.5-0.7c0.6-0.5,0.9-1.1,0.9-1.8c0-0.8-0.3-1.5-1-1.9c-0.7-0.4-1.8-0.7-3.4-0.7h-4l0.8-8.9H28v2.6h-7L20.6,18H22.2z
		 M32.5,28.2c-0.5,0-1-0.2-1.4-0.5c-0.4-0.4-0.6-0.8-0.6-1.4c0-0.6,0.2-1,0.5-1.4c0.4-0.4,0.8-0.5,1.4-0.5s1,0.2,1.4,0.5
		c0.4,0.4,0.6,0.8,0.6,1.4c0,0.6-0.2,1-0.6,1.4C33.5,28,33.1,28.2,32.5,28.2z"/>
	<path class="st0" d="M1.9,28.3c-2-7.6,3.9-18.1,9.4-22.6c8.5-6.9,23.2-5,29.2,4.5c5.8,9.1,0.8,20.9-7.5,26.3
		C23.7,42.4,9.8,40.8,3.8,32C-3,22,3.4,7.5,14.1,3c6.3-2.7,15.7-2.5,21.7,3.6c3.2,3.3,4.9,7.7,4.9,12.2c0,4.5-1.7,8.9-4.9,12.2
		c-6.3,6.5-16.5,6.6-23.5,2.7C5.5,30-0.1,21.7,2.8,12.9c1.3-3.9,4-7.2,7.7-9.3c3.6-2.2,7.9-3,12.1-2.4C32,2.6,41.9,12.3,40.5,21.1"
		/>
</g>
</svg>
