<svg id="Layer_1" data-name="Layer 1" xmlns="http://www.w3.org/2000/svg" width="386.41mm" height="51.88mm" viewBox="0 0 1095.33 147.06">
  <defs>
    <style>
      .cls-1 {
        fill: none;
        stroke: #ffd800;
        stroke-linecap: round;
        stroke-miterlimit: 10;
        stroke-width: 7px;
      }
    </style>
  </defs>
  <g>
    <path class="cls-1" d="M2.6,2.35c38.42,42.46,65.78,48.72,84,46,31.57-4.72,39.71-36.89,71-37,31.83-.12,38.93,33.06,71,32,28.85-1,33-28.08,63-29,28.31-.87,32.84,22.92,64,24,30,1,33.85-20.71,65-21,33.83-.32,39.8,25.17,71,22,26.39-2.68,30.76-21.77,55-20,22.34,1.63,24.52,18.24,45,19,26.74,1,32.43-26.93,59-28,28.37-1.15,34.76,30.1,64,30,28.25-.1,33.81-29.23,62-29,28,.23,32.76,29,61,30,29.56,1,35.08-30.17,67-32,32.45-1.86,38.5,28.41,73,28,33.31-.4,44.71-29,74.54-25,18.21,2.45,31.6,15.49,40,26"/>
    <path class="cls-1" d="M6.1,55.85c11,17.1,28.52,38.11,52,40,31,2.49,42.32-30.82,79-32,35.77-1.15,43,30,77,27,33.13-2.9,36.53-33.4,71-36,28.89-2.18,33.6,18.71,66,18,33.5-.74,37.18-23.28,68-23,35,.31,42,29.5,73,26,27-3,32.64-26.51,56-24,21.39,2.3,23.34,22.7,43,24,25.29,1.67,32.17-31.46,60-33,25.17-1.4,29.81,25.16,59,27,29.36,1.85,35.34-24.35,66-24,31.41.35,36.73,28,66,27,30.29-1,34.79-31,65-32,29.81-1,34.75,27.83,66,28,30.91.17,41.72-28,71-25,17.38,1.76,30.56,13.41,39,23"/>
    <path class="cls-1" d="M2.94,120.56c12.91,11.16,33.18,24.9,56.51,22.78,32.47-2.94,40.36-33.85,71.24-35.55,32.81-1.8,39.85,32.22,72.7,31.44,35.72-.85,43.74-41.45,78.14-40.7,29.68.64,34.3,31.1,64.7,31.6,33.06.55,41.31-35.25,73.29-33.59,29,1.5,34.08,31.48,61.68,30.67,27.82-.82,35.2-31.66,59.38-29.29,23.58,2.31,25.89,32.57,48.76,35,26.89,2.8,37.59-37.55,67.23-36.46,24.5.9,28.14,28.87,53.66,29.84,26.76,1,34.34-29.29,62.4-28.35,22,.73,23,19.6,47.53,24,32.06,5.72,42.12-24.39,79.51-23.72,33,.58,37.75,24.21,67.48,21.54,31.19-2.8,38.8-30,63.38-29.38,13.76.34,32.79,9.37,55.07,48.82"/>
  </g>
</svg>
